# Blender 3.4.0
# www.blender.org
o Text
v 0.350250 -0.000000 0.150000
v 0.213750 0.301500 0.150000
v -0.221250 0.301500 0.150000
v -0.350250 -0.000000 0.150000
v -0.500250 -0.000000 0.150000
v -0.060750 1.029000 0.150000
v 0.042750 1.029000 0.150000
v 0.500250 -0.000000 0.150000
v 0.153750 0.433500 0.150000
v -0.011250 0.804000 0.150000
v -0.164250 0.433500 0.150000
v 0.350250 0.000000 -0.150000
v 0.213750 0.301500 -0.150000
v -0.221250 0.301500 -0.150000
v -0.350250 0.000000 -0.150000
v -0.500250 0.000000 -0.150000
v -0.060750 1.029000 -0.150000
v 0.042750 1.029000 -0.150000
v 0.500250 0.000000 -0.150000
v 0.153750 0.433500 -0.150000
v -0.011250 0.804000 -0.150000
v -0.164250 0.433500 -0.150000
v 0.350250 0.000000 -0.150000
v 0.350250 -0.000000 0.150000
v 0.213750 0.301500 -0.150000
v 0.213750 0.301500 0.150000
v -0.221250 0.301500 -0.150000
v -0.221250 0.301500 0.150000
v -0.350250 0.000000 -0.150000
v -0.350250 -0.000000 0.150000
v -0.500250 0.000000 -0.150000
v -0.500250 -0.000000 0.150000
v -0.060750 1.029000 -0.150000
v -0.060750 1.029000 0.150000
v 0.042750 1.029000 -0.150000
v 0.042750 1.029000 0.150000
v 0.500250 0.000000 -0.150000
v 0.500250 -0.000000 0.150000
v 0.153750 0.433500 -0.150000
v 0.153750 0.433500 0.150000
v -0.011250 0.804000 -0.150000
v -0.011250 0.804000 0.150000
v -0.164250 0.433500 -0.150000
v -0.164250 0.433500 0.150000
vn -0.0000 -0.0000 1.0000
vn -0.0000 -0.0000 -1.0000
vn -0.9110 -0.4124 -0.0000
vn -0.0000 -1.0000 -0.0000
vn 0.9194 -0.3934 -0.0000
vn -0.9196 0.3928 -0.0000
vn -0.0000 1.0000 -0.0000
vn 0.9138 0.4063 -0.0000
vn -0.9135 -0.4068 -0.0000
vn 0.9243 -0.3817 -0.0000
s 1
f 5//1 7//1 6//1
f 5//1 10//1 7//1
f 10//1 8//1 7//1
f 5//1 11//1 10//1
f 9//1 8//1 10//1
f 5//1 3//1 11//1
f 3//1 9//1 11//1
f 3//1 2//1 9//1
f 2//1 8//1 9//1
f 5//1 4//1 3//1
f 1//1 8//1 2//1
f 16//2 17//2 18//2
f 16//2 18//2 21//2
f 21//2 18//2 19//2
f 16//2 21//2 22//2
f 20//2 21//2 19//2
f 16//2 22//2 14//2
f 14//2 22//2 20//2
f 14//2 20//2 13//2
f 13//2 20//2 19//2
f 16//2 14//2 15//2
f 12//2 13//2 19//2
f 26//3 23//3 24//3
f 28//4 25//4 26//4
f 30//5 27//5 28//5
f 32//4 29//4 30//4
f 34//6 31//6 32//6
f 36//7 33//7 34//7
f 38//8 35//8 36//8
f 24//4 37//4 38//4
f 42//9 39//9 40//9
f 44//10 41//10 42//10
f 40//7 43//7 44//7
f 26//3 25//3 23//3
f 28//4 27//4 25//4
f 30//5 29//5 27//5
f 32//4 31//4 29//4
f 34//6 33//6 31//6
f 36//7 35//7 33//7
f 38//8 37//8 35//8
f 24//4 23//4 37//4
f 42//9 41//9 39//9
f 44//10 43//10 41//10
f 40//7 39//7 43//7
