# Blender 3.4.0
# www.blender.org
o Text
v -0.115500 0.891000 0.150000
v -0.115500 0.582000 0.150000
v 0.303000 0.582000 0.150000
v 0.303000 0.450000 0.150000
v -0.115500 0.450000 0.150000
v -0.115500 0.132000 0.150000
v 0.331500 0.132000 0.150000
v 0.331500 -0.000000 0.150000
v -0.262500 -0.000000 0.150000
v -0.262500 1.023000 0.150000
v 0.318000 1.023000 0.150000
v 0.318000 0.891000 0.150000
v -0.115500 0.891000 -0.150000
v -0.115500 0.582000 -0.150000
v 0.303000 0.582000 -0.150000
v 0.303000 0.450000 -0.150000
v -0.115500 0.450000 -0.150000
v -0.115500 0.132000 -0.150000
v 0.331500 0.132000 -0.150000
v 0.331500 0.000000 -0.150000
v -0.262500 0.000000 -0.150000
v -0.262500 1.023000 -0.150000
v 0.318000 1.023000 -0.150000
v 0.318000 0.891000 -0.150000
v -0.115500 0.891000 -0.150000
v -0.115500 0.891000 0.150000
v -0.115500 0.582000 -0.150000
v -0.115500 0.582000 0.150000
v 0.303000 0.582000 -0.150000
v 0.303000 0.582000 0.150000
v 0.303000 0.450000 -0.150000
v 0.303000 0.450000 0.150000
v -0.115500 0.450000 -0.150000
v -0.115500 0.450000 0.150000
v -0.115500 0.132000 -0.150000
v -0.115500 0.132000 0.150000
v 0.331500 0.132000 -0.150000
v 0.331500 0.132000 0.150000
v 0.331500 0.000000 -0.150000
v 0.331500 -0.000000 0.150000
v -0.262500 0.000000 -0.150000
v -0.262500 -0.000000 0.150000
v -0.262500 1.023000 -0.150000
v -0.262500 1.023000 0.150000
v 0.318000 1.023000 -0.150000
v 0.318000 1.023000 0.150000
v 0.318000 0.891000 -0.150000
v 0.318000 0.891000 0.150000
vn -0.0000 -0.0000 1.0000
vn -0.0000 -0.0000 -1.0000
vn 1.0000 -0.0000 -0.0000
vn -0.0000 1.0000 -0.0000
vn -0.0000 -1.0000 -0.0000
vn -1.0000 -0.0000 -0.0000
s 1
f 9//1 1//1 10//1
f 1//1 11//1 10//1
f 1//1 12//1 11//1
f 9//1 2//1 1//1
f 9//1 5//1 2//1
f 5//1 3//1 2//1
f 5//1 4//1 3//1
f 9//1 6//1 5//1
f 9//1 7//1 6//1
f 9//1 8//1 7//1
f 21//2 22//2 13//2
f 13//2 22//2 23//2
f 13//2 23//2 24//2
f 21//2 13//2 14//2
f 21//2 14//2 17//2
f 17//2 14//2 15//2
f 17//2 15//2 16//2
f 21//2 17//2 18//2
f 21//2 18//2 19//2
f 21//2 19//2 20//2
f 28//3 25//3 26//3
f 30//4 27//4 28//4
f 32//3 29//3 30//3
f 34//5 31//5 32//5
f 36//3 33//3 34//3
f 38//4 35//4 36//4
f 40//3 37//3 38//3
f 42//5 39//5 40//5
f 44//6 41//6 42//6
f 46//4 43//4 44//4
f 48//3 45//3 46//3
f 26//5 47//5 48//5
f 28//3 27//3 25//3
f 30//4 29//4 27//4
f 32//3 31//3 29//3
f 34//5 33//5 31//5
f 36//3 35//3 33//3
f 38//4 37//4 35//4
f 40//3 39//3 37//3
f 42//5 41//5 39//5
f 44//6 43//6 41//6
f 46//4 45//4 43//4
f 48//3 47//3 45//3
f 26//5 25//5 47//5
