# Blender 3.4.0
# www.blender.org
o Cube
v -0.073500 0.000000 0.150000
v -0.073500 1.023500 0.150000
v -0.073500 0.000000 -0.150000
v -0.073500 1.023500 -0.150000
v 0.073500 0.000000 0.150000
v 0.073500 1.023500 0.150000
v 0.073500 0.000000 -0.150000
v 0.073500 1.023500 -0.150000
v -0.073500 0.128449 0.150000
v -0.073500 0.895051 0.150000
v -0.073500 0.895051 -0.150000
v -0.073500 0.128449 -0.150000
v 0.073500 0.895051 -0.150000
v 0.073500 0.128449 -0.150000
v 0.073500 0.895051 0.150000
v 0.073500 0.128449 0.150000
v -0.073500 0.895051 0.150000
v -0.073500 1.023500 0.150000
v -0.073500 1.023500 -0.150000
v 0.073500 1.023500 -0.150000
v 0.073500 1.023500 0.150000
v -0.073500 0.895051 -0.150000
v 0.073500 0.895051 -0.150000
v 0.073500 0.895051 0.150000
v -0.301350 0.000000 -0.150000
v -0.301350 0.000000 0.150000
v -0.301350 0.128449 -0.150000
v 0.301350 0.128449 -0.150000
v 0.301350 0.000000 -0.150000
v 0.301350 0.000000 0.150000
v 0.301350 0.128449 0.150000
v -0.301350 0.128449 0.150000
v -0.301350 0.895051 0.150000
v -0.301350 1.023500 0.150000
v -0.301350 1.023500 -0.150000
v 0.301350 1.023500 -0.150000
v 0.301350 1.023500 0.150000
v -0.301350 0.895051 -0.150000
v 0.301350 0.895051 -0.150000
v 0.301350 0.895051 0.150000
vn -0.0000 1.0000 -0.0000
vn -0.0000 -0.0000 -1.0000
vn -0.0000 -0.0000 1.0000
vn -0.0000 -1.0000 -0.0000
vn 1.0000 -0.0000 -0.0000
vn -1.0000 -0.0000 -0.0000
s 0
f 11//1 17//1 22//1
f 4//2 13//2 11//2
f 6//1 24//1 21//1
f 6//3 10//3 15//3
f 7//4 1//4 3//4
f 4//1 6//1 8//1
f 16//3 1//3 5//3
f 15//3 9//3 16//3
f 9//3 26//3 1//3
f 13//5 16//5 14//5
f 12//2 7//2 3//2
f 11//2 14//2 12//2
f 23//4 40//4 24//4
f 10//6 12//6 9//6
f 12//1 32//1 9//1
f 24//3 37//3 21//3
f 13//1 20//1 23//1
f 4//1 22//1 19//1
f 15//1 23//1 24//1
f 10//1 18//1 17//1
f 8//1 21//1 20//1
f 2//1 19//1 18//1
f 28//5 30//5 29//5
f 32//6 25//6 26//6
f 34//6 38//6 33//6
f 36//5 40//5 39//5
f 17//4 38//4 22//4
f 18//3 33//3 17//3
f 14//2 29//2 7//2
f 19//1 34//1 18//1
f 7//4 30//4 5//4
f 16//1 28//1 14//1
f 1//4 25//4 3//4
f 21//1 36//1 20//1
f 22//2 35//2 19//2
f 5//3 31//3 16//3
f 20//2 39//2 23//2
f 3//2 27//2 12//2
f 11//1 10//1 17//1
f 4//2 8//2 13//2
f 6//1 15//1 24//1
f 6//3 2//3 10//3
f 7//4 5//4 1//4
f 4//1 2//1 6//1
f 16//3 9//3 1//3
f 15//3 10//3 9//3
f 9//3 32//3 26//3
f 13//5 15//5 16//5
f 12//2 14//2 7//2
f 11//2 13//2 14//2
f 23//4 39//4 40//4
f 10//6 11//6 12//6
f 12//1 27//1 32//1
f 24//3 40//3 37//3
f 13//1 8//1 20//1
f 4//1 11//1 22//1
f 15//1 13//1 23//1
f 10//1 2//1 18//1
f 8//1 6//1 21//1
f 2//1 4//1 19//1
f 28//5 31//5 30//5
f 32//6 27//6 25//6
f 34//6 35//6 38//6
f 36//5 37//5 40//5
f 17//4 33//4 38//4
f 18//3 34//3 33//3
f 14//2 28//2 29//2
f 19//1 35//1 34//1
f 7//4 29//4 30//4
f 16//1 31//1 28//1
f 1//4 26//4 25//4
f 21//1 37//1 36//1
f 22//2 38//2 35//2
f 5//3 30//3 31//3
f 20//2 36//2 39//2
f 3//2 25//2 27//2
