# Blender 3.4.0
# www.blender.org
o Cube.001
v 0.126500 1.023500 0.150000
v 0.126500 1.023500 -0.150000
v 0.273500 1.023500 0.150000
v 0.273500 1.023500 -0.150000
v 0.126500 0.281329 0.150000
v 0.126500 0.281329 -0.150000
v 0.273500 0.281329 -0.150000
v 0.273500 0.281329 0.150000
v 0.118387 0.238059 0.150000
v 0.118387 0.238059 -0.150000
v 0.256522 0.187782 -0.150000
v 0.256522 0.187782 0.150000
v 0.095965 0.200174 0.150000
v 0.095965 0.200174 -0.150000
v 0.208574 0.105684 -0.150000
v 0.208574 0.105684 0.150000
v 0.061938 0.172243 0.150000
v 0.061938 0.172243 -0.150000
v 0.135438 0.044937 -0.150000
v 0.135438 0.044937 0.150000
v 0.020409 0.157634 0.150000
v 0.020409 0.157634 -0.150000
v 0.045935 0.012867 -0.150000
v 0.045935 0.012867 0.150000
v -0.023612 0.158109 0.150000
v -0.023612 0.158109 -0.150000
v -0.049138 0.013343 -0.150000
v -0.049138 0.013343 0.150000
v -0.064815 0.173612 0.150000
v -0.064815 0.173612 -0.150000
v -0.138315 0.046307 -0.150000
v -0.138315 0.046307 0.150000
v -0.098231 0.202273 0.150000
v -0.098231 0.202273 -0.150000
v -0.210839 0.107783 -0.150000
v -0.210839 0.107783 0.150000
v -0.119829 0.240634 0.150000
v -0.119829 0.240633 -0.150000
v -0.257964 0.190356 -0.150000
v -0.257964 0.190356 0.150000
v -0.127005 0.284068 0.150000
v -0.127005 0.284068 -0.150000
v -0.274005 0.284068 -0.150000
v -0.274005 0.284068 0.150000
v -0.274005 0.327255 -0.150000
v -0.274005 0.327255 0.150000
v -0.127005 0.327255 0.150000
v -0.127005 0.327255 -0.150000
vn -1.0000 -0.0000 -0.0000
vn -0.9975 0.0714 -0.0000
vn -0.0000 -0.0000 -1.0000
vn 1.0000 -0.0000 -0.0000
vn 0.9976 -0.0699 -0.0000
vn -0.0000 -0.0000 1.0000
vn -0.0000 1.0000 -0.0000
vn -0.9575 0.2883 -0.0000
vn 0.9594 -0.2820 -0.0000
vn -0.7809 0.6246 -0.0000
vn 0.7848 -0.6198 -0.0000
vn -0.5053 0.8629 -0.0000
vn 0.5105 -0.8599 -0.0000
vn -0.1679 0.9858 -0.0000
vn 0.1738 -0.9848 -0.0000
vn 0.1899 0.9818 -0.0000
vn -0.1840 -0.9829 -0.0000
vn 0.5246 0.8513 -0.0000
vn -0.5195 -0.8545 -0.0000
vn 0.7951 0.6064 -0.0000
vn -0.7914 -0.6114 -0.0000
vn 0.9643 0.2649 -0.0000
vn -0.9625 -0.2712 -0.0000
vn 0.9978 0.0658 -0.0000
vn -0.9977 -0.0674 -0.0000
s 1
f 1//1 6//2 5//2
f 2//3 7//3 6//3
f 4//4 8//5 7//5
f 3//6 5//6 8//6
f 2//7 3//7 4//7
f 6//2 9//8 5//2
f 7//5 12//9 11//9
f 10//8 13//10 9//8
f 11//9 16//11 15//11
f 14//10 17//12 13//10
f 15//11 20//13 19//13
f 18//12 21//14 17//12
f 19//13 24//15 23//15
f 22//14 25//16 21//14
f 23//15 28//17 27//17
f 25//16 30//18 29//18
f 28//17 31//19 27//17
f 30//18 33//20 29//18
f 31//19 36//21 35//21
f 34//20 37//22 33//20
f 36//21 39//23 35//21
f 38//22 41//24 37//22
f 39//23 44//25 43//25
f 43//3 48//3 42//3
f 41//6 40//6 37//6
f 37//6 36//6 33//6
f 33//6 32//6 29//6
f 29//6 28//6 25//6
f 28//6 21//6 25//6
f 24//6 17//6 21//6
f 20//6 13//6 17//6
f 16//6 9//6 13//6
f 5//6 12//6 8//6
f 39//3 42//3 38//3
f 35//3 38//3 34//3
f 31//3 34//3 30//3
f 27//3 30//3 26//3
f 22//3 27//3 26//3
f 18//3 23//3 22//3
f 14//3 19//3 18//3
f 10//3 15//3 14//3
f 11//3 6//3 7//3
f 46//7 48//7 45//7
f 44//25 45//1 43//25
f 41//6 46//6 44//6
f 42//24 47//4 41//24
f 1//1 2//1 6//2
f 2//3 4//3 7//3
f 4//4 3//4 8//5
f 3//6 1//6 5//6
f 2//7 1//7 3//7
f 6//2 10//8 9//8
f 7//5 8//5 12//9
f 10//8 14//10 13//10
f 11//9 12//9 16//11
f 14//10 18//12 17//12
f 15//11 16//11 20//13
f 18//12 22//14 21//14
f 19//13 20//13 24//15
f 22//14 26//16 25//16
f 23//15 24//15 28//17
f 25//16 26//16 30//18
f 28//17 32//19 31//19
f 30//18 34//20 33//20
f 31//19 32//19 36//21
f 34//20 38//22 37//22
f 36//21 40//23 39//23
f 38//22 42//24 41//24
f 39//23 40//23 44//25
f 43//3 45//3 48//3
f 41//6 44//6 40//6
f 37//6 40//6 36//6
f 33//6 36//6 32//6
f 29//6 32//6 28//6
f 28//6 24//6 21//6
f 24//6 20//6 17//6
f 20//6 16//6 13//6
f 16//6 12//6 9//6
f 5//6 9//6 12//6
f 39//3 43//3 42//3
f 35//3 39//3 38//3
f 31//3 35//3 34//3
f 27//3 31//3 30//3
f 22//3 23//3 27//3
f 18//3 19//3 23//3
f 14//3 15//3 19//3
f 10//3 11//3 15//3
f 11//3 10//3 6//3
f 46//7 47//7 48//7
f 44//25 46//1 45//1
f 41//6 47//6 46//6
f 42//24 48//4 47//4
