# Blender 3.4.0
# www.blender.org
o Text
v 0.330750 -0.000000 0.150000
v 0.330750 0.796500 0.150000
v 0.327750 0.796500 0.150000
v 0.012750 0.400500 0.150000
v -0.011250 0.400500 0.150000
v -0.326250 0.796500 0.150000
v -0.329250 0.796500 0.150000
v -0.329250 -0.000000 0.150000
v -0.476250 -0.000000 0.150000
v -0.476250 1.023000 0.150000
v -0.338250 1.023000 0.150000
v 0.000750 0.603000 0.150000
v 0.341250 1.023000 0.150000
v 0.477750 1.023000 0.150000
v 0.477750 -0.000000 0.150000
v 0.330750 0.000000 -0.150000
v 0.330750 0.796500 -0.150000
v 0.327750 0.796500 -0.150000
v 0.012750 0.400500 -0.150000
v -0.011250 0.400500 -0.150000
v -0.326250 0.796500 -0.150000
v -0.329250 0.796500 -0.150000
v -0.329250 0.000000 -0.150000
v -0.476250 0.000000 -0.150000
v -0.476250 1.023000 -0.150000
v -0.338250 1.023000 -0.150000
v 0.000750 0.603000 -0.150000
v 0.341250 1.023000 -0.150000
v 0.477750 1.023000 -0.150000
v 0.477750 0.000000 -0.150000
v 0.330750 0.000000 -0.150000
v 0.330750 -0.000000 0.150000
v 0.330750 0.796500 -0.150000
v 0.330750 0.796500 0.150000
v 0.327750 0.796500 -0.150000
v 0.327750 0.796500 0.150000
v 0.012750 0.400500 -0.150000
v 0.012750 0.400500 0.150000
v -0.011250 0.400500 -0.150000
v -0.011250 0.400500 0.150000
v -0.326250 0.796500 -0.150000
v -0.326250 0.796500 0.150000
v -0.329250 0.796500 -0.150000
v -0.329250 0.796500 0.150000
v -0.329250 0.000000 -0.150000
v -0.329250 -0.000000 0.150000
v -0.476250 0.000000 -0.150000
v -0.476250 -0.000000 0.150000
v -0.476250 1.023000 -0.150000
v -0.476250 1.023000 0.150000
v -0.338250 1.023000 -0.150000
v -0.338250 1.023000 0.150000
v 0.000750 0.603000 -0.150000
v 0.000750 0.603000 0.150000
v 0.341250 1.023000 -0.150000
v 0.341250 1.023000 0.150000
v 0.477750 1.023000 -0.150000
v 0.477750 1.023000 0.150000
v 0.477750 0.000000 -0.150000
v 0.477750 -0.000000 0.150000
vn -0.0000 -0.0000 1.0000
vn -0.0000 -0.0000 -1.0000
vn -1.0000 -0.0000 -0.0000
vn -0.0000 -1.0000 -0.0000
vn 0.7826 -0.6225 -0.0000
vn -0.7826 -0.6225 -0.0000
vn 1.0000 -0.0000 -0.0000
vn -0.0000 1.0000 -0.0000
vn 0.7782 0.6281 -0.0000
vn -0.7768 0.6298 -0.0000
s 1
f 9//1 11//1 10//1
f 9//1 7//1 11//1
f 7//1 6//1 11//1
f 6//1 12//1 11//1
f 12//1 14//1 13//1
f 12//1 3//1 14//1
f 3//1 2//1 14//1
f 2//1 15//1 14//1
f 9//1 8//1 7//1
f 5//1 12//1 6//1
f 12//1 4//1 3//1
f 1//1 15//1 2//1
f 5//1 4//1 12//1
f 24//2 25//2 26//2
f 24//2 26//2 22//2
f 22//2 26//2 21//2
f 21//2 26//2 27//2
f 27//2 28//2 29//2
f 27//2 29//2 18//2
f 18//2 29//2 17//2
f 17//2 29//2 30//2
f 24//2 22//2 23//2
f 20//2 21//2 27//2
f 27//2 18//2 19//2
f 16//2 17//2 30//2
f 20//2 27//2 19//2
f 34//3 31//3 32//3
f 36//4 33//4 34//4
f 38//5 35//5 36//5
f 40//4 37//4 38//4
f 42//6 39//6 40//6
f 44//4 41//4 42//4
f 46//7 43//7 44//7
f 48//4 45//4 46//4
f 50//3 47//3 48//3
f 52//8 49//8 50//8
f 54//9 51//9 52//9
f 56//10 53//10 54//10
f 58//8 55//8 56//8
f 60//7 57//7 58//7
f 32//4 59//4 60//4
f 34//3 33//3 31//3
f 36//4 35//4 33//4
f 38//5 37//5 35//5
f 40//4 39//4 37//4
f 42//6 41//6 39//6
f 44//4 43//4 41//4
f 46//7 45//7 43//7
f 48//4 47//4 45//4
f 50//3 49//3 47//3
f 52//8 51//8 49//8
f 54//9 53//9 51//9
f 56//10 55//10 53//10
f 58//8 57//8 55//8
f 60//7 59//7 57//7
f 32//4 31//4 59//4
