# Blender 3.4.0
# www.blender.org
o Text
v 0.347250 -0.000000 0.150000
v -0.336750 0.787500 0.150000
v -0.336750 -0.000000 0.150000
v -0.474750 -0.000000 0.150000
v -0.474750 1.023000 0.150000
v -0.357750 1.023000 0.150000
v 0.335250 0.231000 0.150000
v 0.335250 1.023000 0.150000
v 0.473250 1.023000 0.150000
v 0.473250 -0.000000 0.150000
v 0.347250 0.000000 -0.150000
v -0.336750 0.787500 -0.150000
v -0.336750 0.000000 -0.150000
v -0.474750 0.000000 -0.150000
v -0.474750 1.023000 -0.150000
v -0.357750 1.023000 -0.150000
v 0.335250 0.231000 -0.150000
v 0.335250 1.023000 -0.150000
v 0.473250 1.023000 -0.150000
v 0.473250 0.000000 -0.150000
v 0.347250 0.000000 -0.150000
v 0.347250 -0.000000 0.150000
v -0.336750 0.787500 -0.150000
v -0.336750 0.787500 0.150000
v -0.336750 0.000000 -0.150000
v -0.336750 -0.000000 0.150000
v -0.474750 0.000000 -0.150000
v -0.474750 -0.000000 0.150000
v -0.474750 1.023000 -0.150000
v -0.474750 1.023000 0.150000
v -0.357750 1.023000 -0.150000
v -0.357750 1.023000 0.150000
v 0.335250 0.231000 -0.150000
v 0.335250 0.231000 0.150000
v 0.335250 1.023000 -0.150000
v 0.335250 1.023000 0.150000
v 0.473250 1.023000 -0.150000
v 0.473250 1.023000 0.150000
v 0.473250 0.000000 -0.150000
v 0.473250 -0.000000 0.150000
vn -0.0000 -0.0000 1.0000
vn -0.0000 -0.0000 -1.0000
vn -0.7550 -0.6558 -0.0000
vn 1.0000 -0.0000 -0.0000
vn -0.0000 -1.0000 -0.0000
vn -1.0000 -0.0000 -0.0000
vn -0.0000 1.0000 -0.0000
vn 0.7526 0.6585 -0.0000
s 1
f 4//1 6//1 5//1
f 4//1 2//1 6//1
f 2//1 7//1 6//1
f 7//1 9//1 8//1
f 7//1 10//1 9//1
f 4//1 3//1 2//1
f 1//1 7//1 2//1
f 1//1 10//1 7//1
f 14//2 15//2 16//2
f 14//2 16//2 12//2
f 12//2 16//2 17//2
f 17//2 18//2 19//2
f 17//2 19//2 20//2
f 14//2 12//2 13//2
f 11//2 12//2 17//2
f 11//2 17//2 20//2
f 24//3 21//3 22//3
f 26//4 23//4 24//4
f 28//5 25//5 26//5
f 30//6 27//6 28//6
f 32//7 29//7 30//7
f 34//8 31//8 32//8
f 36//6 33//6 34//6
f 38//7 35//7 36//7
f 40//4 37//4 38//4
f 22//5 39//5 40//5
f 24//3 23//3 21//3
f 26//4 25//4 23//4
f 28//5 27//5 25//5
f 30//6 29//6 27//6
f 32//7 31//7 29//7
f 34//8 33//8 31//8
f 36//6 35//6 33//6
f 38//7 37//7 35//7
f 40//4 39//4 37//4
f 22//5 21//5 39//5
