# Blender v2.80 (sub 74) OBJ File: ''
# www.blender.org
o Text
v 0.080980 1.031613 0.225000
v 0.157215 1.017403 0.225000
v 0.227648 0.994547 0.225000
v 0.291972 0.963722 0.225000
v 0.349879 0.925606 0.225000
v 0.401063 0.880875 0.225000
v 0.445214 0.830207 0.225000
v 0.482028 0.774278 0.225000
v 0.511195 0.713766 0.225000
v 0.532410 0.649347 0.225000
v 0.545364 0.581700 0.225000
v 0.549750 0.511500 0.225000
v 0.545476 0.443191 0.225000
v 0.532812 0.376778 0.225000
v 0.511992 0.313031 0.225000
v 0.483250 0.252722 0.225000
v 0.446820 0.196622 0.225000
v 0.402937 0.145500 0.225000
v 0.351836 0.100128 0.225000
v 0.293750 0.061278 0.225000
v 0.228914 0.029719 0.225000
v 0.157562 0.006222 0.225000
v 0.079930 -0.008441 0.225000
v -0.003750 -0.013500 0.225000
v -0.084761 -0.008470 0.225000
v -0.160340 0.006118 0.225000
v -0.230180 0.029508 0.225000
v -0.293972 0.060944 0.225000
v -0.351411 0.099673 0.225000
v -0.402188 0.144937 0.225000
v -0.445996 0.195983 0.225000
v -0.482528 0.252056 0.225000
v -0.511477 0.312398 0.225000
v -0.532535 0.376257 0.225000
v -0.545395 0.442876 0.225000
v -0.549750 0.511500 0.225000
v -0.545279 0.581384 0.225000
v -0.532104 0.648826 0.225000
v -0.510586 0.713133 0.225000
v -0.481083 0.773611 0.225000
v -0.443956 0.829569 0.225000
v -0.399563 0.880313 0.225000
v -0.348263 0.925150 0.225000
v -0.290417 0.963389 0.225000
v -0.226383 0.994336 0.225000
v -0.156521 1.017299 0.225000
v -0.081190 1.031584 0.225000
v -0.000750 1.036500 0.225000
v 0.055312 0.124905 0.225000
v 0.108493 0.134868 0.225000
v 0.158414 0.151008 0.225000
v 0.204694 0.172944 0.225000
v 0.246954 0.200298 0.225000
v 0.284813 0.232688 0.225000
v 0.317890 0.269734 0.225000
v 0.345806 0.311056 0.225000
v 0.368180 0.356273 0.225000
v 0.384632 0.405007 0.225000
v 0.394782 0.456876 0.225000
v 0.398250 0.511500 0.225000
v 0.394782 0.566439 0.225000
v 0.384632 0.618514 0.225000
v 0.368180 0.667359 0.225000
v 0.345806 0.712611 0.225000
v 0.317890 0.753905 0.225000
v 0.284813 0.790875 0.225000
v 0.246954 0.823158 0.225000
v 0.204694 0.850389 0.225000
v 0.158414 0.872203 0.225000
v 0.108493 0.888236 0.225000
v 0.055312 0.898123 0.225000
v -0.000750 0.901500 0.225000
v -0.056467 0.898123 0.225000
v -0.109361 0.888236 0.225000
v -0.159047 0.872203 0.225000
v -0.205139 0.850389 0.225000
v -0.247252 0.823158 0.225000
v -0.285000 0.790875 0.225000
v -0.317998 0.753904 0.225000
v -0.345861 0.712611 0.225000
v -0.368203 0.667359 0.225000
v -0.384639 0.618514 0.225000
v -0.394783 0.566439 0.225000
v -0.398250 0.511500 0.225000
v -0.394783 0.456876 0.225000
v -0.384639 0.405007 0.225000
v -0.368203 0.356273 0.225000
v -0.345861 0.311056 0.225000
v -0.317998 0.269734 0.225000
v -0.285000 0.232687 0.225000
v -0.247252 0.200298 0.225000
v -0.205139 0.172944 0.225000
v -0.159047 0.151008 0.225000
v -0.109361 0.134868 0.225000
v -0.056467 0.124905 0.225000
v -0.000750 0.121500 0.225000
v 0.080980 1.031613 -0.225000
v 0.157215 1.017403 -0.225000
v 0.227648 0.994547 -0.225000
v 0.291972 0.963722 -0.225000
v 0.349879 0.925606 -0.225000
v 0.401063 0.880875 -0.225000
v 0.445214 0.830207 -0.225000
v 0.482028 0.774278 -0.225000
v 0.511195 0.713766 -0.225000
v 0.532410 0.649347 -0.225000
v 0.545364 0.581700 -0.225000
v 0.549750 0.511500 -0.225000
v 0.545476 0.443191 -0.225000
v 0.532812 0.376778 -0.225000
v 0.511992 0.313031 -0.225000
v 0.483250 0.252722 -0.225000
v 0.446820 0.196622 -0.225000
v 0.402937 0.145500 -0.225000
v 0.351836 0.100128 -0.225000
v 0.293750 0.061278 -0.225000
v 0.228914 0.029719 -0.225000
v 0.157562 0.006222 -0.225000
v 0.079930 -0.008441 -0.225000
v -0.003750 -0.013500 -0.225000
v -0.084761 -0.008470 -0.225000
v -0.160340 0.006118 -0.225000
v -0.230180 0.029508 -0.225000
v -0.293972 0.060944 -0.225000
v -0.351411 0.099673 -0.225000
v -0.402188 0.144938 -0.225000
v -0.445996 0.195984 -0.225000
v -0.482528 0.252056 -0.225000
v -0.511477 0.312398 -0.225000
v -0.532535 0.376257 -0.225000
v -0.545395 0.442876 -0.225000
v -0.549750 0.511500 -0.225000
v -0.545279 0.581384 -0.225000
v -0.532104 0.648826 -0.225000
v -0.510586 0.713133 -0.225000
v -0.481083 0.773611 -0.225000
v -0.443956 0.829569 -0.225000
v -0.399563 0.880313 -0.225000
v -0.348263 0.925150 -0.225000
v -0.290417 0.963389 -0.225000
v -0.226383 0.994336 -0.225000
v -0.156521 1.017299 -0.225000
v -0.081190 1.031584 -0.225000
v -0.000750 1.036500 -0.225000
v 0.055312 0.124905 -0.225000
v 0.108493 0.134868 -0.225000
v 0.158414 0.151008 -0.225000
v 0.204694 0.172945 -0.225000
v 0.246954 0.200298 -0.225000
v 0.284813 0.232688 -0.225000
v 0.317890 0.269734 -0.225000
v 0.345806 0.311056 -0.225000
v 0.368180 0.356273 -0.225000
v 0.384632 0.405007 -0.225000
v 0.394782 0.456876 -0.225000
v 0.398250 0.511500 -0.225000
v 0.394782 0.566439 -0.225000
v 0.384632 0.618514 -0.225000
v 0.368180 0.667359 -0.225000
v 0.345806 0.712611 -0.225000
v 0.317890 0.753905 -0.225000
v 0.284813 0.790875 -0.225000
v 0.246954 0.823158 -0.225000
v 0.204694 0.850389 -0.225000
v 0.158414 0.872203 -0.225000
v 0.108493 0.888236 -0.225000
v 0.055312 0.898123 -0.225000
v -0.000750 0.901500 -0.225000
v -0.056467 0.898123 -0.225000
v -0.109361 0.888236 -0.225000
v -0.159047 0.872203 -0.225000
v -0.205139 0.850389 -0.225000
v -0.247252 0.823158 -0.225000
v -0.285000 0.790875 -0.225000
v -0.317998 0.753904 -0.225000
v -0.345861 0.712611 -0.225000
v -0.368203 0.667359 -0.225000
v -0.384639 0.618514 -0.225000
v -0.394783 0.566439 -0.225000
v -0.398250 0.511500 -0.225000
v -0.394783 0.456876 -0.225000
v -0.384639 0.405007 -0.225000
v -0.368203 0.356273 -0.225000
v -0.345861 0.311056 -0.225000
v -0.317998 0.269734 -0.225000
v -0.285000 0.232688 -0.225000
v -0.247252 0.200298 -0.225000
v -0.205139 0.172944 -0.225000
v -0.159047 0.151008 -0.225000
v -0.109361 0.134868 -0.225000
v -0.056467 0.124905 -0.225000
v -0.000750 0.121500 -0.225000
v 0.080980 1.031613 -0.225000
v 0.080980 1.031613 0.225000
v 0.157215 1.017403 -0.225000
v 0.157215 1.017403 0.225000
v 0.227648 0.994547 -0.225000
v 0.227648 0.994547 0.225000
v 0.291972 0.963722 -0.225000
v 0.291972 0.963722 0.225000
v 0.349879 0.925606 -0.225000
v 0.349879 0.925606 0.225000
v 0.401063 0.880875 -0.225000
v 0.401063 0.880875 0.225000
v 0.445214 0.830207 -0.225000
v 0.445214 0.830207 0.225000
v 0.482028 0.774278 -0.225000
v 0.482028 0.774278 0.225000
v 0.511195 0.713766 -0.225000
v 0.511195 0.713766 0.225000
v 0.532410 0.649347 -0.225000
v 0.532410 0.649347 0.225000
v 0.545364 0.581700 -0.225000
v 0.545364 0.581700 0.225000
v 0.549750 0.511500 -0.225000
v 0.549750 0.511500 0.225000
v 0.545476 0.443191 -0.225000
v 0.545476 0.443191 0.225000
v 0.532812 0.376778 -0.225000
v 0.532812 0.376778 0.225000
v 0.511992 0.313031 -0.225000
v 0.511992 0.313031 0.225000
v 0.483250 0.252722 -0.225000
v 0.483250 0.252722 0.225000
v 0.446820 0.196622 -0.225000
v 0.446820 0.196622 0.225000
v 0.402937 0.145500 -0.225000
v 0.402937 0.145500 0.225000
v 0.351836 0.100128 -0.225000
v 0.351836 0.100128 0.225000
v 0.293750 0.061278 -0.225000
v 0.293750 0.061278 0.225000
v 0.228914 0.029719 -0.225000
v 0.228914 0.029719 0.225000
v 0.157562 0.006222 -0.225000
v 0.157562 0.006222 0.225000
v 0.079930 -0.008441 -0.225000
v 0.079930 -0.008441 0.225000
v -0.003750 -0.013500 -0.225000
v -0.003750 -0.013500 0.225000
v -0.084761 -0.008470 -0.225000
v -0.084761 -0.008470 0.225000
v -0.160340 0.006118 -0.225000
v -0.160340 0.006118 0.225000
v -0.230180 0.029508 -0.225000
v -0.230180 0.029508 0.225000
v -0.293972 0.060944 -0.225000
v -0.293972 0.060944 0.225000
v -0.351411 0.099673 -0.225000
v -0.351411 0.099673 0.225000
v -0.402188 0.144938 -0.225000
v -0.402188 0.144937 0.225000
v -0.445996 0.195984 -0.225000
v -0.445996 0.195983 0.225000
v -0.482528 0.252056 -0.225000
v -0.482528 0.252056 0.225000
v -0.511477 0.312398 -0.225000
v -0.511477 0.312398 0.225000
v -0.532535 0.376257 -0.225000
v -0.532535 0.376257 0.225000
v -0.545395 0.442876 -0.225000
v -0.545395 0.442876 0.225000
v -0.549750 0.511500 -0.225000
v -0.549750 0.511500 0.225000
v -0.545279 0.581384 -0.225000
v -0.545279 0.581384 0.225000
v -0.532104 0.648826 -0.225000
v -0.532104 0.648826 0.225000
v -0.510586 0.713133 -0.225000
v -0.510586 0.713133 0.225000
v -0.481083 0.773611 -0.225000
v -0.481083 0.773611 0.225000
v -0.443956 0.829569 -0.225000
v -0.443956 0.829569 0.225000
v -0.399563 0.880313 -0.225000
v -0.399563 0.880313 0.225000
v -0.348263 0.925150 -0.225000
v -0.348263 0.925150 0.225000
v -0.290417 0.963389 -0.225000
v -0.290417 0.963389 0.225000
v -0.226383 0.994336 -0.225000
v -0.226383 0.994336 0.225000
v -0.156521 1.017299 -0.225000
v -0.156521 1.017299 0.225000
v -0.081190 1.031584 -0.225000
v -0.081190 1.031584 0.225000
v -0.000750 1.036500 -0.225000
v -0.000750 1.036500 0.225000
v 0.055312 0.124905 -0.225000
v 0.055312 0.124905 0.225000
v 0.108493 0.134868 -0.225000
v 0.108493 0.134868 0.225000
v 0.158414 0.151008 -0.225000
v 0.158414 0.151008 0.225000
v 0.204694 0.172945 -0.225000
v 0.204694 0.172944 0.225000
v 0.246954 0.200298 -0.225000
v 0.246954 0.200298 0.225000
v 0.284813 0.232688 -0.225000
v 0.284813 0.232688 0.225000
v 0.317890 0.269734 -0.225000
v 0.317890 0.269734 0.225000
v 0.345806 0.311056 -0.225000
v 0.345806 0.311056 0.225000
v 0.368180 0.356273 -0.225000
v 0.368180 0.356273 0.225000
v 0.384632 0.405007 -0.225000
v 0.384632 0.405007 0.225000
v 0.394782 0.456876 -0.225000
v 0.394782 0.456876 0.225000
v 0.398250 0.511500 -0.225000
v 0.398250 0.511500 0.225000
v 0.394782 0.566439 -0.225000
v 0.394782 0.566439 0.225000
v 0.384632 0.618514 -0.225000
v 0.384632 0.618514 0.225000
v 0.368180 0.667359 -0.225000
v 0.368180 0.667359 0.225000
v 0.345806 0.712611 -0.225000
v 0.345806 0.712611 0.225000
v 0.317890 0.753905 -0.225000
v 0.317890 0.753905 0.225000
v 0.284813 0.790875 -0.225000
v 0.284813 0.790875 0.225000
v 0.246954 0.823158 -0.225000
v 0.246954 0.823158 0.225000
v 0.204694 0.850389 -0.225000
v 0.204694 0.850389 0.225000
v 0.158414 0.872203 -0.225000
v 0.158414 0.872203 0.225000
v 0.108493 0.888236 -0.225000
v 0.108493 0.888236 0.225000
v 0.055312 0.898123 -0.225000
v 0.055312 0.898123 0.225000
v -0.000750 0.901500 -0.225000
v -0.000750 0.901500 0.225000
v -0.056467 0.898123 -0.225000
v -0.056467 0.898123 0.225000
v -0.109361 0.888236 -0.225000
v -0.109361 0.888236 0.225000
v -0.159047 0.872203 -0.225000
v -0.159047 0.872203 0.225000
v -0.205139 0.850389 -0.225000
v -0.205139 0.850389 0.225000
v -0.247252 0.823158 -0.225000
v -0.247252 0.823158 0.225000
v -0.285000 0.790875 -0.225000
v -0.285000 0.790875 0.225000
v -0.317998 0.753904 -0.225000
v -0.317998 0.753904 0.225000
v -0.345861 0.712611 -0.225000
v -0.345861 0.712611 0.225000
v -0.368203 0.667359 -0.225000
v -0.368203 0.667359 0.225000
v -0.384639 0.618514 -0.225000
v -0.384639 0.618514 0.225000
v -0.394783 0.566439 -0.225000
v -0.394783 0.566439 0.225000
v -0.398250 0.511500 -0.225000
v -0.398250 0.511500 0.225000
v -0.394783 0.456876 -0.225000
v -0.394783 0.456876 0.225000
v -0.384639 0.405007 -0.225000
v -0.384639 0.405007 0.225000
v -0.368203 0.356273 -0.225000
v -0.368203 0.356273 0.225000
v -0.345861 0.311056 -0.225000
v -0.345861 0.311056 0.225000
v -0.317998 0.269734 -0.225000
v -0.317998 0.269734 0.225000
v -0.285000 0.232688 -0.225000
v -0.285000 0.232687 0.225000
v -0.247252 0.200298 -0.225000
v -0.247252 0.200298 0.225000
v -0.205139 0.172944 -0.225000
v -0.205139 0.172944 0.225000
v -0.159047 0.151008 -0.225000
v -0.159047 0.151008 0.225000
v -0.109361 0.134868 -0.225000
v -0.109361 0.134868 0.225000
v -0.056467 0.124905 -0.225000
v -0.056467 0.124905 0.225000
v -0.000750 0.121500 -0.225000
v -0.000750 0.121500 0.225000
vn -0.0000 0.0000 1.0000
vn -0.0000 0.0000 -1.0000
vn 0.2465 0.9692 0.0000
vn 0.1217 0.9926 0.0000
vn 0.3712 0.9285 0.0000
vn 0.4921 0.8705 0.0000
vn 0.6053 0.7960 0.0000
vn 0.7076 0.7066 0.0000
vn 0.7964 0.6048 0.0000
vn 0.8700 0.4931 0.0000
vn 0.9273 0.3743 0.0000
vn 0.9680 0.2510 0.0000
vn 0.9921 0.1255 0.0000
vn 1.0000 -0.0000 0.0000
vn 0.9921 -0.1251 0.0000
vn 0.9684 -0.2494 0.0000
vn 0.9286 -0.3711 0.0000
vn 0.8726 -0.4885 0.0000
vn 0.8005 -0.5993 -0.0000
vn 0.7130 -0.7012 -0.0000
vn 0.6114 -0.7913 -0.0000
vn 0.4980 -0.8672 -0.0000
vn 0.3761 -0.9266 -0.0000
vn 0.2497 -0.9683 -0.0000
vn 0.1232 -0.9924 -0.0000
vn -0.0008 -1.0000 -0.0000
vn -0.1260 -0.9920 -0.0000
vn -0.2541 -0.9672 -0.0000
vn -0.3807 -0.9247 -0.0000
vn -0.5017 -0.8650 -0.0000
vn -0.6136 -0.7896 -0.0000
vn -0.7137 -0.7004 -0.0000
vn -0.8001 -0.5999 -0.0000
vn -0.8716 -0.4902 -0.0000
vn -0.9276 -0.3736 0.0000
vn -0.9678 -0.2519 0.0000
vn -0.9919 -0.1267 0.0000
vn -1.0000 0.0003 0.0000
vn -0.9918 0.1281 0.0000
vn -0.9669 0.2551 0.0000
vn -0.9255 0.3787 0.0000
vn -0.8679 0.4967 0.0000
vn -0.7947 0.6070 0.0000
vn -0.7069 0.7073 0.0000
vn -0.6061 0.7954 0.0000
vn -0.4944 0.8692 0.0000
vn -0.3745 0.9272 0.0000
vn -0.2498 0.9683 0.0000
vn -0.1239 0.9923 0.0000
vn -0.0007 1.0000 0.0000
vn 0.1226 -0.9925 -0.0000
vn 0.2464 -0.9692 -0.0000
vn 0.3687 -0.9295 -0.0000
vn 0.4869 -0.8735 -0.0000
vn 0.5981 -0.8015 -0.0000
vn 0.6996 -0.7145 -0.0000
vn 0.7891 -0.6143 -0.0000
vn 0.8644 -0.5028 0.0000
vn 0.9239 -0.3825 0.0000
vn 0.9665 -0.2565 0.0000
vn 0.9918 -0.1280 0.0000
vn 1.0000 -0.0002 0.0000
vn 0.9918 0.1274 0.0000
vn 0.9667 0.2558 0.0000
vn 0.9241 0.3821 0.0000
vn 0.8644 0.5028 0.0000
vn 0.7887 0.6148 0.0000
vn 0.6986 0.7155 0.0000
vn 0.5966 0.8025 0.0000
vn 0.4851 0.8745 0.0000
vn 0.3668 0.9303 0.0000
vn 0.2448 0.9696 0.0000
vn -0.0002 1.0000 0.0000
vn -0.1224 0.9925 0.0000
vn -0.2459 0.9693 0.0000
vn -0.3682 0.9297 0.0000
vn -0.4864 0.8737 0.0000
vn -0.5978 0.8016 0.0000
vn -0.6996 0.7146 0.0000
vn -0.7893 0.6140 0.0000
vn -0.8648 0.5022 0.0000
vn -0.9243 0.3817 0.0000
vn -0.9668 0.2556 0.0000
vn -0.9919 0.1274 0.0000
vn -1.0000 -0.0002 0.0000
vn -0.9918 -0.1279 0.0000
vn -0.9666 -0.2563 0.0000
vn -0.9241 -0.3821 0.0000
vn -0.8648 -0.5022 0.0000
vn -0.7897 -0.6135 0.0000
vn -0.7005 -0.7136 -0.0000
vn -0.5993 -0.8005 -0.0000
vn -0.4883 -0.8727 -0.0000
vn -0.3701 -0.9290 -0.0000
vn -0.2475 -0.9689 -0.0000
vn -0.1233 -0.9924 -0.0000
vn -0.0002 -1.0000 -0.0000
s 1
f 47//1 1//1 48//1
f 47//1 2//1 1//1
f 46//1 2//1 47//1
f 46//1 3//1 2//1
f 45//1 3//1 46//1
f 45//1 4//1 3//1
f 44//1 4//1 45//1
f 44//1 5//1 4//1
f 43//1 5//1 44//1
f 43//1 6//1 5//1
f 42//1 72//1 43//1
f 72//1 6//1 43//1
f 42//1 73//1 72//1
f 71//1 6//1 72//1
f 70//1 6//1 71//1
f 42//1 74//1 73//1
f 69//1 6//1 70//1
f 42//1 75//1 74//1
f 69//1 7//1 6//1
f 41//1 75//1 42//1
f 68//1 7//1 69//1
f 41//1 76//1 75//1
f 67//1 7//1 68//1
f 41//1 77//1 76//1
f 67//1 8//1 7//1
f 40//1 77//1 41//1
f 66//1 8//1 67//1
f 40//1 78//1 77//1
f 65//1 8//1 66//1
f 40//1 79//1 78//1
f 65//1 9//1 8//1
f 39//1 79//1 40//1
f 64//1 9//1 65//1
f 39//1 80//1 79//1
f 64//1 10//1 9//1
f 38//1 80//1 39//1
f 63//1 10//1 64//1
f 38//1 81//1 80//1
f 62//1 10//1 63//1
f 38//1 82//1 81//1
f 62//1 11//1 10//1
f 37//1 82//1 38//1
f 61//1 11//1 62//1
f 37//1 83//1 82//1
f 61//1 12//1 11//1
f 36//1 83//1 37//1
f 60//1 12//1 61//1
f 36//1 84//1 83//1
f 35//1 84//1 36//1
f 35//1 85//1 84//1
f 59//1 12//1 60//1
f 59//1 13//1 12//1
f 35//1 86//1 85//1
f 58//1 13//1 59//1
f 58//1 14//1 13//1
f 34//1 86//1 35//1
f 34//1 87//1 86//1
f 57//1 14//1 58//1
f 57//1 15//1 14//1
f 33//1 87//1 34//1
f 56//1 15//1 57//1
f 33//1 88//1 87//1
f 56//1 16//1 15//1
f 32//1 88//1 33//1
f 55//1 16//1 56//1
f 32//1 89//1 88//1
f 54//1 16//1 55//1
f 32//1 90//1 89//1
f 54//1 17//1 16//1
f 31//1 90//1 32//1
f 53//1 17//1 54//1
f 31//1 91//1 90//1
f 52//1 17//1 53//1
f 31//1 92//1 91//1
f 52//1 18//1 17//1
f 30//1 92//1 31//1
f 51//1 18//1 52//1
f 30//1 93//1 92//1
f 50//1 18//1 51//1
f 30//1 94//1 93//1
f 50//1 19//1 18//1
f 29//1 94//1 30//1
f 49//1 19//1 50//1
f 29//1 95//1 94//1
f 96//1 19//1 49//1
f 29//1 96//1 95//1
f 29//1 19//1 96//1
f 29//1 20//1 19//1
f 28//1 20//1 29//1
f 28//1 21//1 20//1
f 27//1 21//1 28//1
f 27//1 22//1 21//1
f 26//1 22//1 27//1
f 26//1 23//1 22//1
f 25//1 23//1 26//1
f 25//1 24//1 23//1
f 97//2 143//2 144//2
f 98//2 143//2 97//2
f 98//2 142//2 143//2
f 99//2 142//2 98//2
f 99//2 141//2 142//2
f 100//2 141//2 99//2
f 100//2 140//2 141//2
f 101//2 140//2 100//2
f 101//2 139//2 140//2
f 102//2 139//2 101//2
f 168//2 138//2 139//2
f 102//2 168//2 139//2
f 169//2 138//2 168//2
f 102//2 167//2 168//2
f 102//2 166//2 167//2
f 170//2 138//2 169//2
f 102//2 165//2 166//2
f 171//2 138//2 170//2
f 103//2 165//2 102//2
f 171//2 137//2 138//2
f 103//2 164//2 165//2
f 172//2 137//2 171//2
f 103//2 163//2 164//2
f 173//2 137//2 172//2
f 104//2 163//2 103//2
f 173//2 136//2 137//2
f 104//2 162//2 163//2
f 174//2 136//2 173//2
f 104//2 161//2 162//2
f 175//2 136//2 174//2
f 105//2 161//2 104//2
f 175//2 135//2 136//2
f 105//2 160//2 161//2
f 176//2 135//2 175//2
f 106//2 160//2 105//2
f 176//2 134//2 135//2
f 106//2 159//2 160//2
f 177//2 134//2 176//2
f 106//2 158//2 159//2
f 178//2 134//2 177//2
f 107//2 158//2 106//2
f 178//2 133//2 134//2
f 107//2 157//2 158//2
f 179//2 133//2 178//2
f 108//2 157//2 107//2
f 179//2 132//2 133//2
f 108//2 156//2 157//2
f 180//2 132//2 179//2
f 180//2 131//2 132//2
f 181//2 131//2 180//2
f 108//2 155//2 156//2
f 109//2 155//2 108//2
f 182//2 131//2 181//2
f 109//2 154//2 155//2
f 110//2 154//2 109//2
f 182//2 130//2 131//2
f 183//2 130//2 182//2
f 110//2 153//2 154//2
f 111//2 153//2 110//2
f 183//2 129//2 130//2
f 111//2 152//2 153//2
f 184//2 129//2 183//2
f 112//2 152//2 111//2
f 184//2 128//2 129//2
f 112//2 151//2 152//2
f 185//2 128//2 184//2
f 112//2 150//2 151//2
f 186//2 128//2 185//2
f 113//2 150//2 112//2
f 186//2 127//2 128//2
f 113//2 149//2 150//2
f 187//2 127//2 186//2
f 113//2 148//2 149//2
f 188//2 127//2 187//2
f 114//2 148//2 113//2
f 188//2 126//2 127//2
f 114//2 147//2 148//2
f 189//2 126//2 188//2
f 114//2 146//2 147//2
f 190//2 126//2 189//2
f 115//2 146//2 114//2
f 190//2 125//2 126//2
f 115//2 145//2 146//2
f 191//2 125//2 190//2
f 115//2 192//2 145//2
f 192//2 125//2 191//2
f 115//2 125//2 192//2
f 116//2 125//2 115//2
f 116//2 124//2 125//2
f 117//2 124//2 116//2
f 117//2 123//2 124//2
f 118//2 123//2 117//2
f 118//2 122//2 123//2
f 119//2 122//2 118//2
f 119//2 121//2 122//2
f 120//2 121//2 119//2
f 196//3 193//4 194//4
f 198//5 195//3 196//3
f 200//6 197//5 198//5
f 202//7 199//6 200//6
f 204//8 201//7 202//7
f 206//9 203//8 204//8
f 208//10 205//9 206//9
f 210//11 207//10 208//10
f 212//12 209//11 210//11
f 214//13 211//12 212//12
f 216//14 213//13 214//13
f 218//15 215//14 216//14
f 220//16 217//15 218//15
f 222//17 219//16 220//16
f 224//18 221//17 222//17
f 226//19 223//18 224//18
f 228//20 225//19 226//19
f 230//21 227//20 228//20
f 232//22 229//21 230//21
f 234//23 231//22 232//22
f 236//24 233//23 234//23
f 238//25 235//24 236//24
f 240//26 237//25 238//25
f 242//27 239//26 240//26
f 244//28 241//27 242//27
f 246//29 243//28 244//28
f 248//30 245//29 246//29
f 250//31 247//30 248//30
f 252//32 249//31 250//31
f 254//33 251//32 252//32
f 256//34 253//33 254//33
f 258//35 255//34 256//34
f 260//36 257//35 258//35
f 262//37 259//36 260//36
f 264//38 261//37 262//37
f 266//39 263//38 264//38
f 268//40 265//39 266//39
f 270//41 267//40 268//40
f 272//42 269//41 270//41
f 274//43 271//42 272//42
f 276//44 273//43 274//43
f 278//45 275//44 276//44
f 280//46 277//45 278//45
f 282//47 279//46 280//46
f 284//48 281//47 282//47
f 286//49 283//48 284//48
f 288//50 285//49 286//49
f 194//4 287//50 288//50
f 289//51 292//52 290//51
f 291//52 294//53 292//52
f 293//53 296//54 294//53
f 295//54 298//55 296//54
f 297//55 300//56 298//55
f 299//56 302//57 300//56
f 301//57 304//58 302//57
f 303//58 306//59 304//58
f 305//59 308//60 306//59
f 307//60 310//61 308//60
f 309//61 312//62 310//61
f 311//62 314//63 312//62
f 313//63 316//64 314//63
f 315//64 318//65 316//64
f 317//65 320//66 318//65
f 319//66 322//67 320//66
f 321//67 324//68 322//67
f 323//68 326//69 324//68
f 325//69 328//70 326//69
f 327//70 330//71 328//70
f 329//71 332//72 330//71
f 331//72 334//4 332//72
f 333//4 336//73 334//4
f 335//73 338//74 336//73
f 337//74 340//75 338//74
f 339//75 342//76 340//75
f 341//76 344//77 342//76
f 343//77 346//78 344//77
f 345//78 348//79 346//78
f 347//79 350//80 348//79
f 349//80 352//81 350//80
f 351//81 354//82 352//81
f 353//82 356//83 354//82
f 355//83 358//84 356//83
f 357//84 360//85 358//84
f 359//85 362//86 360//85
f 361//86 364//87 362//86
f 363//87 366//88 364//87
f 365//88 368//89 366//88
f 367//89 370//90 368//89
f 369//90 372//91 370//90
f 371//91 374//92 372//91
f 373//92 376//93 374//92
f 375//93 378//94 376//93
f 377//94 380//95 378//94
f 379//95 382//96 380//95
f 381//96 384//97 382//96
f 383//97 290//51 384//97
f 196//3 195//3 193//4
f 198//5 197//5 195//3
f 200//6 199//6 197//5
f 202//7 201//7 199//6
f 204//8 203//8 201//7
f 206//9 205//9 203//8
f 208//10 207//10 205//9
f 210//11 209//11 207//10
f 212//12 211//12 209//11
f 214//13 213//13 211//12
f 216//14 215//14 213//13
f 218//15 217//15 215//14
f 220//16 219//16 217//15
f 222//17 221//17 219//16
f 224//18 223//18 221//17
f 226//19 225//19 223//18
f 228//20 227//20 225//19
f 230//21 229//21 227//20
f 232//22 231//22 229//21
f 234//23 233//23 231//22
f 236//24 235//24 233//23
f 238//25 237//25 235//24
f 240//26 239//26 237//25
f 242//27 241//27 239//26
f 244//28 243//28 241//27
f 246//29 245//29 243//28
f 248//30 247//30 245//29
f 250//31 249//31 247//30
f 252//32 251//32 249//31
f 254//33 253//33 251//32
f 256//34 255//34 253//33
f 258//35 257//35 255//34
f 260//36 259//36 257//35
f 262//37 261//37 259//36
f 264//38 263//38 261//37
f 266//39 265//39 263//38
f 268//40 267//40 265//39
f 270//41 269//41 267//40
f 272//42 271//42 269//41
f 274//43 273//43 271//42
f 276//44 275//44 273//43
f 278//45 277//45 275//44
f 280//46 279//46 277//45
f 282//47 281//47 279//46
f 284//48 283//48 281//47
f 286//49 285//49 283//48
f 288//50 287//50 285//49
f 194//4 193//4 287//50
f 289//51 291//52 292//52
f 291//52 293//53 294//53
f 293//53 295//54 296//54
f 295//54 297//55 298//55
f 297//55 299//56 300//56
f 299//56 301//57 302//57
f 301//57 303//58 304//58
f 303//58 305//59 306//59
f 305//59 307//60 308//60
f 307//60 309//61 310//61
f 309//61 311//62 312//62
f 311//62 313//63 314//63
f 313//63 315//64 316//64
f 315//64 317//65 318//65
f 317//65 319//66 320//66
f 319//66 321//67 322//67
f 321//67 323//68 324//68
f 323//68 325//69 326//69
f 325//69 327//70 328//70
f 327//70 329//71 330//71
f 329//71 331//72 332//72
f 331//72 333//4 334//4
f 333//4 335//73 336//73
f 335//73 337//74 338//74
f 337//74 339//75 340//75
f 339//75 341//76 342//76
f 341//76 343//77 344//77
f 343//77 345//78 346//78
f 345//78 347//79 348//79
f 347//79 349//80 350//80
f 349//80 351//81 352//81
f 351//81 353//82 354//82
f 353//82 355//83 356//83
f 355//83 357//84 358//84
f 357//84 359//85 360//85
f 359//85 361//86 362//86
f 361//86 363//87 364//87
f 363//87 365//88 366//88
f 365//88 367//89 368//89
f 367//89 369//90 370//90
f 369//90 371//91 372//91
f 371//91 373//92 374//92
f 373//92 375//93 376//93
f 375//93 377//94 378//94
f 377//94 379//95 380//95
f 379//95 381//96 382//96
f 381//96 383//97 384//97
f 383//97 289//51 290//51
