# Blender 3.4.0
# www.blender.org
o Cylinder
v 0.000000 1.060347 -0.150000
v 0.000000 1.060347 0.150000
v 0.108218 1.050157 -0.150000
v 0.108218 1.050157 0.150000
v 0.212277 1.019977 -0.150000
v 0.212277 1.019977 0.150000
v 0.308178 0.970968 -0.150000
v 0.308178 0.970968 0.150000
v 0.392236 0.905012 -0.150000
v 0.392236 0.905012 0.150000
v 0.461221 0.824645 -0.150000
v 0.461221 0.824645 0.150000
v 0.512481 0.732955 -0.150000
v 0.512481 0.732955 0.150000
v 0.544047 0.633466 -0.150000
v 0.544047 0.633466 0.150000
v 0.554705 0.530000 -0.150000
v 0.554705 0.530000 0.150000
v 0.544047 0.426534 -0.150000
v 0.544047 0.426534 0.150000
v 0.512481 0.327045 -0.150000
v 0.512481 0.327045 0.150000
v 0.461221 0.235355 -0.150000
v 0.461221 0.235355 0.150000
v 0.392236 0.154988 -0.150000
v 0.392236 0.154988 0.150000
v 0.308178 0.089032 -0.150000
v 0.308178 0.089032 0.150000
v 0.212277 0.040023 -0.150000
v 0.212277 0.040023 0.150000
v 0.108218 0.009843 -0.150000
v 0.108218 0.009843 0.150000
v 0.000000 -0.000347 -0.150000
v 0.000000 -0.000347 0.150000
v -0.108218 0.009843 -0.150000
v -0.108218 0.009843 0.150000
v -0.212277 0.040023 -0.150000
v -0.212277 0.040023 0.150000
v -0.308178 0.089032 -0.150000
v -0.308178 0.089032 0.150000
v -0.392236 0.154988 -0.150000
v -0.392236 0.154988 0.150000
v -0.461221 0.235355 -0.150000
v -0.461221 0.235355 0.150000
v -0.512481 0.327045 -0.150000
v -0.512481 0.327045 0.150000
v -0.544047 0.426534 -0.150000
v -0.544047 0.426534 0.150000
v -0.554705 0.530000 -0.150000
v -0.554705 0.530000 0.150000
v -0.544047 0.633466 -0.150000
v -0.544047 0.633466 0.150000
v -0.512481 0.732955 -0.150000
v -0.512481 0.732955 0.150000
v -0.461221 0.824645 -0.150000
v -0.461221 0.824645 0.150000
v -0.392236 0.905012 -0.150000
v -0.392236 0.905012 0.150000
v -0.308178 0.970968 -0.150000
v -0.308178 0.970968 0.150000
v -0.212277 1.019977 -0.150000
v -0.212277 1.019977 0.150000
v -0.108218 1.050157 -0.150000
v -0.108218 1.050157 0.150000
v 0.079109 0.910246 -0.150000
v -0.000000 0.917695 -0.150000
v -0.000000 0.917695 0.150000
v 0.079109 0.910246 0.150000
v 0.155179 0.888184 -0.150000
v 0.155179 0.888184 0.150000
v 0.225285 0.852357 -0.150000
v 0.225285 0.852357 0.150000
v 0.286733 0.804142 -0.150000
v 0.286733 0.804142 0.150000
v 0.337162 0.745392 -0.150000
v 0.337162 0.745392 0.150000
v 0.374635 0.678365 -0.150000
v 0.374635 0.678365 0.150000
v 0.397710 0.605636 -0.150000
v 0.397710 0.605636 0.150000
v 0.405502 0.530000 -0.150000
v 0.405502 0.530000 0.150000
v 0.397710 0.454364 -0.150000
v 0.397710 0.454364 0.150000
v 0.374635 0.381636 -0.150000
v 0.374635 0.381636 0.150000
v 0.337162 0.314608 -0.150000
v 0.337162 0.314608 0.150000
v 0.286733 0.255858 -0.150000
v 0.286733 0.255858 0.150000
v 0.225285 0.207643 -0.150000
v 0.225285 0.207643 0.150000
v 0.155179 0.171816 -0.150000
v 0.155179 0.171816 0.150000
v 0.079109 0.149754 -0.150000
v 0.079109 0.149754 0.150000
v -0.000000 0.142305 -0.150000
v -0.000000 0.142305 0.150000
v -0.079109 0.149754 -0.150000
v -0.079109 0.149754 0.150000
v -0.155179 0.171816 -0.150000
v -0.155179 0.171816 0.150000
v -0.225285 0.207643 -0.150000
v -0.225285 0.207643 0.150000
v -0.286733 0.255858 -0.150000
v -0.286733 0.255858 0.150000
v -0.337162 0.314608 -0.150000
v -0.337162 0.314608 0.150000
v -0.374635 0.381636 -0.150000
v -0.374635 0.381636 0.150000
v -0.397710 0.454364 -0.150000
v -0.397710 0.454364 0.150000
v -0.405502 0.530000 -0.150000
v -0.405502 0.530000 0.150000
v -0.397710 0.605636 -0.150000
v -0.397710 0.605636 0.150000
v -0.374635 0.678365 -0.150000
v -0.374635 0.678365 0.150000
v -0.337162 0.745392 -0.150000
v -0.337162 0.745392 0.150000
v -0.286733 0.804142 -0.150000
v -0.286733 0.804142 0.150000
v -0.225285 0.852357 -0.150000
v -0.225285 0.852357 0.150000
v -0.155179 0.888184 -0.150000
v -0.155179 0.888184 0.150000
v -0.079109 0.910246 -0.150000
v -0.079109 0.910246 0.150000
v 0.567020 0.144540 0.150000
v 0.567020 0.144540 -0.150000
v 0.498035 0.064173 -0.150000
v 0.498035 0.064173 0.150000
vn -0.1868 -0.9824 -0.0000
vn -0.0000 -1.0000 -0.0000
vn -0.3682 -0.9297 -0.0000
vn -0.5384 -0.8427 -0.0000
vn -0.6911 -0.7228 -0.0000
vn -0.8197 -0.5728 -0.0000
vn -0.9176 -0.3975 -0.0000
vn -0.9790 -0.2037 -0.0000
vn -1.0000 -0.0000 -0.0000
vn -0.9790 0.2037 -0.0000
vn -0.9176 0.3975 -0.0000
vn -0.8729 0.4880 -0.0000
vn 0.6513 0.7588 -0.0000
vn -0.5384 0.8427 -0.0000
vn -0.6173 0.7867 -0.0000
vn -0.3682 0.9297 -0.0000
vn -0.1868 0.9824 -0.0000
vn -0.0000 1.0000 -0.0000
vn 0.1868 0.9824 -0.0000
vn 0.3682 0.9297 -0.0000
vn 0.5384 0.8427 -0.0000
vn 0.6911 0.7228 -0.0000
vn 0.8197 0.5728 -0.0000
vn 0.9176 0.3975 -0.0000
vn 0.9790 0.2037 -0.0000
vn 1.0000 -0.0000 -0.0000
vn 0.9790 -0.2037 -0.0000
vn 0.9176 -0.3975 -0.0000
vn 0.8197 -0.5728 -0.0000
vn 0.6911 -0.7228 -0.0000
vn 0.5384 -0.8427 -0.0000
vn 0.3682 -0.9297 -0.0000
vn 0.1868 -0.9824 -0.0000
vn -0.8197 0.5728 -0.0000
vn -0.6911 0.7228 -0.0000
vn -0.0000 -0.0000 -1.0000
vn -0.0000 -0.0000 1.0000
vn -0.7588 0.6513 -0.0000
vn -0.6513 -0.7588 -0.0000
s 1
f 3//1 2//2 1//2
f 5//3 4//1 3//1
f 7//4 6//3 5//3
f 9//5 8//4 7//4
f 11//6 10//5 9//5
f 13//7 12//6 11//6
f 15//8 14//7 13//7
f 17//9 16//8 15//8
f 19//10 18//9 17//9
f 21//11 20//10 19//10
f 23//12 22//11 21//11
f 26//13 131//13 25//13
f 27//14 26//15 25//15
f 29//16 28//14 27//14
f 31//17 30//16 29//16
f 33//18 32//17 31//17
f 35//19 34//18 33//18
f 37//20 36//19 35//19
f 39//21 38//20 37//20
f 41//22 40//21 39//21
f 43//23 42//22 41//22
f 45//24 44//23 43//23
f 47//25 46//24 45//24
f 49//26 48//25 47//25
f 51//27 50//26 49//26
f 53//28 52//27 51//27
f 55//29 54//28 53//28
f 57//30 56//29 55//29
f 59//31 58//30 57//30
f 61//32 60//31 59//31
f 63//33 62//32 61//32
f 1//2 64//33 63//33
f 67//18 65//19 66//18
f 68//19 69//20 65//19
f 70//20 71//21 69//20
f 72//21 73//22 71//21
f 74//22 75//23 73//22
f 76//23 77//24 75//23
f 78//24 79//25 77//24
f 80//25 81//26 79//25
f 82//26 83//27 81//26
f 84//27 85//28 83//27
f 86//28 87//29 85//28
f 88//29 89//30 87//29
f 90//30 91//31 89//30
f 92//31 93//32 91//31
f 94//32 95//33 93//32
f 96//33 97//2 95//33
f 98//2 99//1 97//2
f 100//1 101//3 99//1
f 102//3 103//4 101//3
f 104//4 105//5 103//4
f 106//5 107//6 105//5
f 108//6 109//7 107//6
f 110//7 111//8 109//7
f 112//8 113//9 111//8
f 114//9 115//10 113//9
f 116//10 117//11 115//10
f 118//11 119//34 117//11
f 120//34 121//35 119//34
f 122//35 123//14 121//35
f 124//14 125//16 123//14
f 126//16 127//17 125//16
f 128//17 66//18 127//17
f 38//36 100//36 36//36
f 56//36 118//36 54//36
f 19//37 85//37 21//37
f 4//36 67//36 2//36
f 37//37 103//37 39//37
f 20//36 86//36 84//36
f 55//37 121//37 57//37
f 38//36 104//36 102//36
f 3//37 69//37 5//37
f 58//36 120//36 56//36
f 21//37 87//37 23//37
f 6//36 68//36 4//36
f 41//37 103//37 105//37
f 22//36 88//36 86//36
f 59//37 121//37 123//37
f 42//36 104//36 40//36
f 5//37 71//37 7//37
f 60//36 122//36 58//36
f 23//37 89//37 25//37
f 6//36 72//36 70//36
f 41//37 107//37 43//37
f 26//36 88//36 24//36
f 59//37 125//37 61//37
f 44//36 106//36 42//36
f 7//37 73//37 9//37
f 62//36 124//36 60//36
f 25//37 91//37 27//37
f 10//36 72//36 8//36
f 45//37 107//37 109//37
f 28//36 90//36 26//36
f 63//37 125//37 127//37
f 46//36 108//36 44//36
f 9//37 75//37 11//37
f 64//36 126//36 62//36
f 27//37 93//37 29//37
f 12//36 74//36 10//36
f 47//37 109//37 111//37
f 28//36 94//36 92//36
f 63//37 66//37 1//37
f 48//36 110//36 46//36
f 11//37 77//37 13//37
f 64//36 67//36 128//36
f 29//37 95//37 31//37
f 12//36 78//36 76//36
f 49//37 111//37 113//37
f 32//36 94//36 30//36
f 50//36 112//36 48//36
f 13//37 79//37 15//37
f 33//37 95//37 97//37
f 14//36 80//36 78//36
f 51//37 113//37 115//37
f 34//36 96//36 32//36
f 52//36 114//36 50//36
f 15//37 81//37 17//37
f 33//37 99//37 35//37
f 16//36 82//36 80//36
f 53//37 115//37 117//37
f 36//36 98//36 34//36
f 54//36 116//36 52//36
f 17//37 83//37 19//37
f 35//37 101//37 37//37
f 18//36 84//36 82//36
f 3//37 66//37 65//37
f 55//37 117//37 119//37
f 131//38 129//38 130//38
f 25//37 130//37 23//37
f 26//36 129//36 132//36
f 23//39 129//39 24//39
f 3//1 4//1 2//2
f 5//3 6//3 4//1
f 7//4 8//4 6//3
f 9//5 10//5 8//4
f 11//6 12//6 10//5
f 13//7 14//7 12//6
f 15//8 16//8 14//7
f 17//9 18//9 16//8
f 19//10 20//10 18//9
f 21//11 22//11 20//10
f 23//12 24//12 22//11
f 26//13 132//13 131//13
f 27//14 28//14 26//15
f 29//16 30//16 28//14
f 31//17 32//17 30//16
f 33//18 34//18 32//17
f 35//19 36//19 34//18
f 37//20 38//20 36//19
f 39//21 40//21 38//20
f 41//22 42//22 40//21
f 43//23 44//23 42//22
f 45//24 46//24 44//23
f 47//25 48//25 46//24
f 49//26 50//26 48//25
f 51//27 52//27 50//26
f 53//28 54//28 52//27
f 55//29 56//29 54//28
f 57//30 58//30 56//29
f 59//31 60//31 58//30
f 61//32 62//32 60//31
f 63//33 64//33 62//32
f 1//2 2//2 64//33
f 67//18 68//19 65//19
f 68//19 70//20 69//20
f 70//20 72//21 71//21
f 72//21 74//22 73//22
f 74//22 76//23 75//23
f 76//23 78//24 77//24
f 78//24 80//25 79//25
f 80//25 82//26 81//26
f 82//26 84//27 83//27
f 84//27 86//28 85//28
f 86//28 88//29 87//29
f 88//29 90//30 89//30
f 90//30 92//31 91//31
f 92//31 94//32 93//32
f 94//32 96//33 95//33
f 96//33 98//2 97//2
f 98//2 100//1 99//1
f 100//1 102//3 101//3
f 102//3 104//4 103//4
f 104//4 106//5 105//5
f 106//5 108//6 107//6
f 108//6 110//7 109//7
f 110//7 112//8 111//8
f 112//8 114//9 113//9
f 114//9 116//10 115//10
f 116//10 118//11 117//11
f 118//11 120//34 119//34
f 120//34 122//35 121//35
f 122//35 124//14 123//14
f 124//14 126//16 125//16
f 126//16 128//17 127//17
f 128//17 67//18 66//18
f 38//36 102//36 100//36
f 56//36 120//36 118//36
f 19//37 83//37 85//37
f 4//36 68//36 67//36
f 37//37 101//37 103//37
f 20//36 22//36 86//36
f 55//37 119//37 121//37
f 38//36 40//36 104//36
f 3//37 65//37 69//37
f 58//36 122//36 120//36
f 21//37 85//37 87//37
f 6//36 70//36 68//36
f 41//37 39//37 103//37
f 22//36 24//36 88//36
f 59//37 57//37 121//37
f 42//36 106//36 104//36
f 5//37 69//37 71//37
f 60//36 124//36 122//36
f 23//37 87//37 89//37
f 6//36 8//36 72//36
f 41//37 105//37 107//37
f 26//36 90//36 88//36
f 59//37 123//37 125//37
f 44//36 108//36 106//36
f 7//37 71//37 73//37
f 62//36 126//36 124//36
f 25//37 89//37 91//37
f 10//36 74//36 72//36
f 45//37 43//37 107//37
f 28//36 92//36 90//36
f 63//37 61//37 125//37
f 46//36 110//36 108//36
f 9//37 73//37 75//37
f 64//36 128//36 126//36
f 27//37 91//37 93//37
f 12//36 76//36 74//36
f 47//37 45//37 109//37
f 28//36 30//36 94//36
f 63//37 127//37 66//37
f 48//36 112//36 110//36
f 11//37 75//37 77//37
f 64//36 2//36 67//36
f 29//37 93//37 95//37
f 12//36 14//36 78//36
f 49//37 47//37 111//37
f 32//36 96//36 94//36
f 50//36 114//36 112//36
f 13//37 77//37 79//37
f 33//37 31//37 95//37
f 14//36 16//36 80//36
f 51//37 49//37 113//37
f 34//36 98//36 96//36
f 52//36 116//36 114//36
f 15//37 79//37 81//37
f 33//37 97//37 99//37
f 16//36 18//36 82//36
f 53//37 51//37 115//37
f 36//36 100//36 98//36
f 54//36 118//36 116//36
f 17//37 81//37 83//37
f 35//37 99//37 101//37
f 18//36 20//36 84//36
f 3//37 1//37 66//37
f 55//37 53//37 117//37
f 131//38 132//38 129//38
f 25//37 131//37 130//37
f 26//36 24//36 129//36
f 23//39 130//39 129//39
