# Blender 3.4.0
# www.blender.org
o Text.001
v -0.029405 1.020743 0.150000
v 0.017264 1.014070 0.150000
v 0.060328 1.003125 0.150000
v 0.099611 0.988056 0.150000
v 0.134936 0.969007 0.150000
v 0.166125 0.946125 0.150000
v 0.193002 0.919556 0.150000
v 0.215389 0.889445 0.150000
v 0.233109 0.855938 0.150000
v 0.245986 0.819181 0.150000
v 0.253842 0.779320 0.150000
v 0.256500 0.736500 0.150000
v 0.255227 0.707509 0.150000
v 0.251437 0.679820 0.150000
v 0.245180 0.653484 0.150000
v 0.236500 0.628556 0.150000
v 0.225445 0.605085 0.150000
v 0.212062 0.583125 0.150000
v 0.196398 0.562727 0.150000
v 0.178500 0.543944 0.150000
v 0.158414 0.526828 0.150000
v 0.136188 0.511431 0.150000
v 0.111867 0.497804 0.150000
v 0.085500 0.486000 0.150000
v 0.108033 0.469938 0.150000
v 0.129264 0.452500 0.150000
v 0.149391 0.433688 0.150000
v 0.168611 0.413500 0.150000
v 0.187123 0.391938 0.150000
v 0.205125 0.369000 0.150000
v 0.222814 0.344688 0.150000
v 0.240389 0.319000 0.150000
v 0.258047 0.291938 0.150000
v 0.275986 0.263500 0.150000
v 0.294405 0.233688 0.150000
v 0.313500 0.202500 0.150000
v 0.324036 0.185568 0.150000
v 0.334042 0.169792 0.150000
v 0.343734 0.154828 0.150000
v 0.353333 0.140333 0.150000
v 0.363057 0.125964 0.150000
v 0.373125 0.111375 0.150000
v 0.383755 0.096224 0.150000
v 0.395167 0.080167 0.150000
v 0.407578 0.062859 0.150000
v 0.421208 0.043958 0.150000
v 0.436276 0.023120 0.150000
v 0.453000 -0.000000 0.150000
v 0.277500 -0.000000 0.150000
v 0.142500 0.210000 0.150000
v 0.110231 0.258719 0.150000
v 0.080722 0.300250 0.150000
v 0.053672 0.335156 0.150000
v 0.028778 0.364000 0.150000
v 0.005738 0.387344 0.150000
v -0.015750 0.405750 0.150000
v -0.035988 0.419781 0.150000
v -0.055278 0.430000 0.150000
v -0.073922 0.436969 0.150000
v -0.092222 0.441250 0.150000
v -0.110481 0.443406 0.150000
v -0.129000 0.444000 0.150000
v -0.190500 0.444000 0.150000
v -0.190500 -0.000000 0.150000
v -0.337500 -0.000000 0.150000
v -0.337500 1.023000 0.150000
v -0.079500 1.023000 0.150000
v -0.096000 0.576000 0.150000
v -0.058931 0.577643 0.150000
v -0.026319 0.582396 0.150000
v 0.002062 0.589992 0.150000
v 0.026444 0.600167 0.150000
v 0.047056 0.612654 0.150000
v 0.064125 0.627187 0.150000
v 0.077882 0.643503 0.150000
v 0.088556 0.661333 0.150000
v 0.096375 0.680414 0.150000
v 0.101569 0.700479 0.150000
v 0.104368 0.721263 0.150000
v 0.105000 0.742500 0.150000
v 0.103451 0.765707 0.150000
v 0.099486 0.787278 0.150000
v 0.093000 0.807141 0.150000
v 0.083889 0.825222 0.150000
v 0.072049 0.841450 0.150000
v 0.057375 0.855750 0.150000
v 0.039764 0.868050 0.150000
v 0.019111 0.878278 0.150000
v -0.004688 0.886359 0.150000
v -0.031736 0.892222 0.150000
v -0.062139 0.895793 0.150000
v -0.096000 0.897000 0.150000
v -0.190500 0.897000 0.150000
v -0.190500 0.576000 0.150000
v -0.029405 1.020743 -0.150000
v 0.017264 1.014070 -0.150000
v 0.060328 1.003125 -0.150000
v 0.099611 0.988056 -0.150000
v 0.134936 0.969007 -0.150000
v 0.166125 0.946125 -0.150000
v 0.193002 0.919556 -0.150000
v 0.215389 0.889445 -0.150000
v 0.233109 0.855938 -0.150000
v 0.245986 0.819181 -0.150000
v 0.253842 0.779320 -0.150000
v 0.256500 0.736500 -0.150000
v 0.255227 0.707509 -0.150000
v 0.251437 0.679820 -0.150000
v 0.245180 0.653484 -0.150000
v 0.236500 0.628556 -0.150000
v 0.225445 0.605085 -0.150000
v 0.212062 0.583125 -0.150000
v 0.196398 0.562727 -0.150000
v 0.178500 0.543944 -0.150000
v 0.158414 0.526828 -0.150000
v 0.136188 0.511431 -0.150000
v 0.111867 0.497804 -0.150000
v 0.085500 0.486000 -0.150000
v 0.108033 0.469938 -0.150000
v 0.129264 0.452500 -0.150000
v 0.149391 0.433688 -0.150000
v 0.168611 0.413500 -0.150000
v 0.187123 0.391938 -0.150000
v 0.205125 0.369000 -0.150000
v 0.222814 0.344688 -0.150000
v 0.240389 0.319000 -0.150000
v 0.258047 0.291938 -0.150000
v 0.275986 0.263500 -0.150000
v 0.294405 0.233688 -0.150000
v 0.313500 0.202500 -0.150000
v 0.324036 0.185568 -0.150000
v 0.334042 0.169792 -0.150000
v 0.343734 0.154828 -0.150000
v 0.353333 0.140333 -0.150000
v 0.363057 0.125964 -0.150000
v 0.373125 0.111375 -0.150000
v 0.383755 0.096224 -0.150000
v 0.395167 0.080167 -0.150000
v 0.407578 0.062859 -0.150000
v 0.421208 0.043958 -0.150000
v 0.436276 0.023120 -0.150000
v 0.453000 0.000000 -0.150000
v 0.277500 0.000000 -0.150000
v 0.142500 0.210000 -0.150000
v 0.110231 0.258719 -0.150000
v 0.080722 0.300250 -0.150000
v 0.053672 0.335156 -0.150000
v 0.028778 0.364000 -0.150000
v 0.005738 0.387344 -0.150000
v -0.015750 0.405750 -0.150000
v -0.035988 0.419781 -0.150000
v -0.055278 0.430000 -0.150000
v -0.073922 0.436969 -0.150000
v -0.092222 0.441250 -0.150000
v -0.110481 0.443406 -0.150000
v -0.129000 0.444000 -0.150000
v -0.190500 0.444000 -0.150000
v -0.190500 0.000000 -0.150000
v -0.337500 0.000000 -0.150000
v -0.337500 1.023000 -0.150000
v -0.079500 1.023000 -0.150000
v -0.096000 0.576000 -0.150000
v -0.058931 0.577643 -0.150000
v -0.026319 0.582396 -0.150000
v 0.002062 0.589992 -0.150000
v 0.026444 0.600167 -0.150000
v 0.047056 0.612654 -0.150000
v 0.064125 0.627187 -0.150000
v 0.077882 0.643503 -0.150000
v 0.088556 0.661333 -0.150000
v 0.096375 0.680414 -0.150000
v 0.101569 0.700479 -0.150000
v 0.104368 0.721263 -0.150000
v 0.105000 0.742500 -0.150000
v 0.103451 0.765707 -0.150000
v 0.099486 0.787278 -0.150000
v 0.093000 0.807141 -0.150000
v 0.083889 0.825222 -0.150000
v 0.072049 0.841450 -0.150000
v 0.057375 0.855750 -0.150000
v 0.039764 0.868050 -0.150000
v 0.019111 0.878278 -0.150000
v -0.004688 0.886359 -0.150000
v -0.031736 0.892222 -0.150000
v -0.062139 0.895793 -0.150000
v -0.096000 0.897000 -0.150000
v -0.190500 0.897000 -0.150000
v -0.190500 0.576000 -0.150000
v -0.029405 1.020743 -0.150000
v -0.029405 1.020743 0.150000
v 0.017264 1.014070 -0.150000
v 0.017264 1.014070 0.150000
v 0.060328 1.003125 -0.150000
v 0.060328 1.003125 0.150000
v 0.099611 0.988056 -0.150000
v 0.099611 0.988056 0.150000
v 0.134936 0.969007 -0.150000
v 0.134936 0.969007 0.150000
v 0.166125 0.946125 -0.150000
v 0.166125 0.946125 0.150000
v 0.193002 0.919556 -0.150000
v 0.193002 0.919556 0.150000
v 0.215389 0.889445 -0.150000
v 0.215389 0.889445 0.150000
v 0.233109 0.855938 -0.150000
v 0.233109 0.855938 0.150000
v 0.245986 0.819181 -0.150000
v 0.245986 0.819181 0.150000
v 0.253842 0.779320 -0.150000
v 0.253842 0.779320 0.150000
v 0.256500 0.736500 -0.150000
v 0.256500 0.736500 0.150000
v 0.255227 0.707509 -0.150000
v 0.255227 0.707509 0.150000
v 0.251437 0.679820 -0.150000
v 0.251437 0.679820 0.150000
v 0.245180 0.653484 -0.150000
v 0.245180 0.653484 0.150000
v 0.236500 0.628556 -0.150000
v 0.236500 0.628556 0.150000
v 0.225445 0.605085 -0.150000
v 0.225445 0.605085 0.150000
v 0.212062 0.583125 -0.150000
v 0.212062 0.583125 0.150000
v 0.196398 0.562727 -0.150000
v 0.196398 0.562727 0.150000
v 0.178500 0.543944 -0.150000
v 0.178500 0.543944 0.150000
v 0.158414 0.526828 -0.150000
v 0.158414 0.526828 0.150000
v 0.136188 0.511431 -0.150000
v 0.136188 0.511431 0.150000
v 0.111867 0.497804 -0.150000
v 0.111867 0.497804 0.150000
v 0.085500 0.486000 -0.150000
v 0.085500 0.486000 0.150000
v 0.108033 0.469938 -0.150000
v 0.108033 0.469938 0.150000
v 0.129264 0.452500 -0.150000
v 0.129264 0.452500 0.150000
v 0.149391 0.433688 -0.150000
v 0.149391 0.433688 0.150000
v 0.168611 0.413500 -0.150000
v 0.168611 0.413500 0.150000
v 0.187123 0.391938 -0.150000
v 0.187123 0.391938 0.150000
v 0.205125 0.369000 -0.150000
v 0.205125 0.369000 0.150000
v 0.222814 0.344688 -0.150000
v 0.222814 0.344688 0.150000
v 0.240389 0.319000 -0.150000
v 0.240389 0.319000 0.150000
v 0.258047 0.291938 -0.150000
v 0.258047 0.291938 0.150000
v 0.275986 0.263500 -0.150000
v 0.275986 0.263500 0.150000
v 0.294405 0.233688 -0.150000
v 0.294405 0.233688 0.150000
v 0.313500 0.202500 -0.150000
v 0.313500 0.202500 0.150000
v 0.324036 0.185568 -0.150000
v 0.324036 0.185568 0.150000
v 0.334042 0.169792 -0.150000
v 0.334042 0.169792 0.150000
v 0.343734 0.154828 -0.150000
v 0.343734 0.154828 0.150000
v 0.353333 0.140333 -0.150000
v 0.353333 0.140333 0.150000
v 0.363057 0.125964 -0.150000
v 0.363057 0.125964 0.150000
v 0.373125 0.111375 -0.150000
v 0.373125 0.111375 0.150000
v 0.383755 0.096224 -0.150000
v 0.383755 0.096224 0.150000
v 0.395167 0.080167 -0.150000
v 0.395167 0.080167 0.150000
v 0.407578 0.062859 -0.150000
v 0.407578 0.062859 0.150000
v 0.421208 0.043958 -0.150000
v 0.421208 0.043958 0.150000
v 0.436276 0.023120 -0.150000
v 0.436276 0.023120 0.150000
v 0.453000 0.000000 -0.150000
v 0.453000 -0.000000 0.150000
v 0.277500 0.000000 -0.150000
v 0.277500 -0.000000 0.150000
v 0.142500 0.210000 -0.150000
v 0.142500 0.210000 0.150000
v 0.110231 0.258719 -0.150000
v 0.110231 0.258719 0.150000
v 0.080722 0.300250 -0.150000
v 0.080722 0.300250 0.150000
v 0.053672 0.335156 -0.150000
v 0.053672 0.335156 0.150000
v 0.028778 0.364000 -0.150000
v 0.028778 0.364000 0.150000
v 0.005738 0.387344 -0.150000
v 0.005738 0.387344 0.150000
v -0.015750 0.405750 -0.150000
v -0.015750 0.405750 0.150000
v -0.035988 0.419781 -0.150000
v -0.035988 0.419781 0.150000
v -0.055278 0.430000 -0.150000
v -0.055278 0.430000 0.150000
v -0.073922 0.436969 -0.150000
v -0.073922 0.436969 0.150000
v -0.092222 0.441250 -0.150000
v -0.092222 0.441250 0.150000
v -0.110481 0.443406 -0.150000
v -0.110481 0.443406 0.150000
v -0.129000 0.444000 -0.150000
v -0.129000 0.444000 0.150000
v -0.190500 0.444000 -0.150000
v -0.190500 0.444000 0.150000
v -0.190500 0.000000 -0.150000
v -0.190500 -0.000000 0.150000
v -0.337500 0.000000 -0.150000
v -0.337500 -0.000000 0.150000
v -0.337500 1.023000 -0.150000
v -0.337500 1.023000 0.150000
v -0.079500 1.023000 -0.150000
v -0.079500 1.023000 0.150000
v -0.096000 0.576000 -0.150000
v -0.096000 0.576000 0.150000
v -0.058931 0.577643 -0.150000
v -0.058931 0.577643 0.150000
v -0.026319 0.582396 -0.150000
v -0.026319 0.582396 0.150000
v 0.002062 0.589992 -0.150000
v 0.002062 0.589992 0.150000
v 0.026444 0.600167 -0.150000
v 0.026444 0.600167 0.150000
v 0.047056 0.612654 -0.150000
v 0.047056 0.612654 0.150000
v 0.064125 0.627187 -0.150000
v 0.064125 0.627187 0.150000
v 0.077882 0.643503 -0.150000
v 0.077882 0.643503 0.150000
v 0.088556 0.661333 -0.150000
v 0.088556 0.661333 0.150000
v 0.096375 0.680414 -0.150000
v 0.096375 0.680414 0.150000
v 0.101569 0.700479 -0.150000
v 0.101569 0.700479 0.150000
v 0.104368 0.721263 -0.150000
v 0.104368 0.721263 0.150000
v 0.105000 0.742500 -0.150000
v 0.105000 0.742500 0.150000
v 0.103451 0.765707 -0.150000
v 0.103451 0.765707 0.150000
v 0.099486 0.787278 -0.150000
v 0.099486 0.787278 0.150000
v 0.093000 0.807141 -0.150000
v 0.093000 0.807141 0.150000
v 0.083889 0.825222 -0.150000
v 0.083889 0.825222 0.150000
v 0.072049 0.841450 -0.150000
v 0.072049 0.841450 0.150000
v 0.057375 0.855750 -0.150000
v 0.057375 0.855750 0.150000
v 0.039764 0.868050 -0.150000
v 0.039764 0.868050 0.150000
v 0.019111 0.878278 -0.150000
v 0.019111 0.878278 0.150000
v -0.004688 0.886359 -0.150000
v -0.004688 0.886359 0.150000
v -0.031736 0.892222 -0.150000
v -0.031736 0.892222 0.150000
v -0.062139 0.895793 -0.150000
v -0.062139 0.895793 0.150000
v -0.096000 0.897000 -0.150000
v -0.096000 0.897000 0.150000
v -0.190500 0.897000 -0.150000
v -0.190500 0.897000 0.150000
v -0.190500 0.576000 -0.150000
v -0.190500 0.576000 0.150000
vn -0.0000 -0.0000 1.0000
vn -0.0000 -0.0000 -1.0000
vn 0.1942 0.9810 -0.0000
vn 0.0934 0.9956 -0.0000
vn 0.3028 0.9531 -0.0000
vn 0.4173 0.9088 -0.0000
vn 0.5344 0.8453 -0.0000
vn 0.6490 0.7608 -0.0000
vn 0.7549 0.6558 -0.0000
vn 0.8457 0.5336 -0.0000
vn 0.9164 0.4002 -0.0000
vn 0.9649 0.2627 -0.0000
vn 0.9918 0.1279 -0.0000
vn 1.0000 0.0090 -0.0000
vn 0.9960 -0.0898 -0.0000
vn 0.9830 -0.1836 -0.0000
vn 0.9599 -0.2804 -0.0000
vn 0.9258 -0.3780 -0.0000
vn 0.8806 -0.4739 -0.0000
vn 0.8247 -0.5655 -0.0000
vn 0.7596 -0.6504 -0.0000
vn 0.6872 -0.7265 -0.0000
vn 0.6098 -0.7926 -0.0000
vn 0.5297 -0.8482 -0.0000
vn 0.4492 -0.8935 -0.0000
vn 0.4086 -0.9127 -0.0000
vn 0.6079 0.7940 -0.0000
vn 0.5805 0.8143 -0.0000
vn 0.6591 0.7520 -0.0000
vn 0.7038 0.7104 -0.0000
vn 0.7417 0.6707 -0.0000
vn 0.7729 0.6345 -0.0000
vn 0.7978 0.6030 -0.0000
vn 0.8171 0.5766 -0.0000
vn 0.8315 0.5556 -0.0000
vn 0.8417 0.5400 -0.0000
vn 0.8483 0.5296 -0.0000
vn 0.8518 0.5239 -0.0000
vn 0.8509 0.5253 -0.0000
vn 0.8468 0.5320 -0.0000
vn 0.8419 0.5396 -0.0000
vn 0.8365 0.5479 -0.0000
vn 0.8310 0.5563 -0.0000
vn 0.8256 0.5642 -0.0000
vn 0.8208 0.5712 -0.0000
vn 0.8169 0.5768 -0.0000
vn 0.8139 0.5810 -0.0000
vn 0.8119 0.5838 -0.0000
vn 0.8107 0.5854 -0.0000
vn 0.8103 0.5860 -0.0000
vn 0.8102 0.5861 -0.0000
vn -0.0000 -1.0000 -0.0000
vn -0.8375 -0.5465 -0.0000
vn -0.8412 -0.5408 -0.0000
vn -0.8246 -0.5658 -0.0000
vn -0.8030 -0.5960 -0.0000
vn -0.7740 -0.6332 -0.0000
vn -0.7348 -0.6783 -0.0000
vn -0.6817 -0.7316 -0.0000
vn -0.6110 -0.7917 -0.0000
vn -0.5199 -0.8542 -0.0000
vn -0.4100 -0.9121 -0.0000
vn -0.2895 -0.9572 -0.0000
vn -0.1728 -0.9850 -0.0000
vn -0.0747 -0.9972 -0.0000
vn -0.0160 -0.9999 -0.0000
vn 1.0000 -0.0000 -0.0000
vn -1.0000 -0.0000 -0.0000
vn 0.0225 0.9997 -0.0000
vn -0.0000 1.0000 -0.0000
vn -0.0944 0.9955 -0.0000
vn -0.0221 0.9998 -0.0000
vn -0.2017 0.9794 -0.0000
vn -0.3226 0.9466 -0.0000
vn -0.4529 0.8916 -0.0000
vn -0.5851 0.8110 -0.0000
vn -0.7088 0.7054 -0.0000
vn -0.8139 0.5810 -0.0000
vn -0.8942 0.4477 -0.0000
vn -0.9489 0.3156 -0.0000
vn -0.9813 0.1924 -0.0000
vn -0.9967 0.0817 -0.0000
vn -0.9998 -0.0184 -0.0000
vn -0.9923 -0.1239 -0.0000
vn -0.9692 -0.2462 -0.0000
vn -0.9245 -0.3813 -0.0000
vn -0.8533 -0.5215 -0.0000
vn -0.7555 -0.6551 -0.0000
vn -0.6374 -0.7705 -0.0000
vn -0.5096 -0.8604 -0.0000
vn -0.3835 -0.9235 -0.0000
vn -0.2671 -0.9637 -0.0000
vn -0.1644 -0.9864 -0.0000
vn -0.0762 -0.9971 -0.0000
vn -0.0178 -0.9998 -0.0000
s 1
f 65//1 93//1 66//1
f 93//1 67//1 66//1
f 93//1 1//1 67//1
f 93//1 2//1 1//1
f 93//1 3//1 2//1
f 93//1 4//1 3//1
f 93//1 5//1 4//1
f 93//1 6//1 5//1
f 93//1 7//1 6//1
f 93//1 92//1 7//1
f 92//1 8//1 7//1
f 65//1 94//1 93//1
f 91//1 8//1 92//1
f 90//1 8//1 91//1
f 89//1 8//1 90//1
f 89//1 9//1 8//1
f 88//1 9//1 89//1
f 87//1 9//1 88//1
f 86//1 9//1 87//1
f 86//1 10//1 9//1
f 85//1 10//1 86//1
f 84//1 10//1 85//1
f 83//1 10//1 84//1
f 83//1 11//1 10//1
f 82//1 11//1 83//1
f 81//1 11//1 82//1
f 81//1 12//1 11//1
f 80//1 12//1 81//1
f 79//1 12//1 80//1
f 79//1 13//1 12//1
f 78//1 13//1 79//1
f 78//1 14//1 13//1
f 77//1 14//1 78//1
f 76//1 14//1 77//1
f 76//1 15//1 14//1
f 75//1 15//1 76//1
f 75//1 16//1 15//1
f 74//1 16//1 75//1
f 74//1 17//1 16//1
f 73//1 17//1 74//1
f 72//1 17//1 73//1
f 72//1 18//1 17//1
f 71//1 18//1 72//1
f 70//1 18//1 71//1
f 70//1 19//1 18//1
f 69//1 19//1 70//1
f 68//1 19//1 69//1
f 65//1 63//1 94//1
f 63//1 68//1 94//1
f 63//1 19//1 68//1
f 63//1 20//1 19//1
f 63//1 21//1 20//1
f 63//1 22//1 21//1
f 63//1 23//1 22//1
f 63//1 24//1 23//1
f 63//1 25//1 24//1
f 63//1 26//1 25//1
f 63//1 62//1 26//1
f 62//1 61//1 26//1
f 61//1 27//1 26//1
f 65//1 64//1 63//1
f 60//1 27//1 61//1
f 59//1 27//1 60//1
f 58//1 27//1 59//1
f 58//1 28//1 27//1
f 57//1 28//1 58//1
f 56//1 28//1 57//1
f 56//1 29//1 28//1
f 55//1 29//1 56//1
f 55//1 30//1 29//1
f 54//1 30//1 55//1
f 54//1 31//1 30//1
f 53//1 31//1 54//1
f 53//1 32//1 31//1
f 52//1 32//1 53//1
f 52//1 33//1 32//1
f 51//1 33//1 52//1
f 51//1 34//1 33//1
f 51//1 35//1 34//1
f 50//1 35//1 51//1
f 50//1 36//1 35//1
f 49//1 36//1 50//1
f 49//1 37//1 36//1
f 49//1 38//1 37//1
f 49//1 39//1 38//1
f 49//1 40//1 39//1
f 49//1 41//1 40//1
f 49//1 42//1 41//1
f 49//1 43//1 42//1
f 49//1 44//1 43//1
f 49//1 45//1 44//1
f 49//1 46//1 45//1
f 49//1 47//1 46//1
f 49//1 48//1 47//1
f 159//2 160//2 187//2
f 187//2 160//2 161//2
f 187//2 161//2 95//2
f 187//2 95//2 96//2
f 187//2 96//2 97//2
f 187//2 97//2 98//2
f 187//2 98//2 99//2
f 187//2 99//2 100//2
f 187//2 100//2 101//2
f 187//2 101//2 186//2
f 186//2 101//2 102//2
f 159//2 187//2 188//2
f 185//2 186//2 102//2
f 184//2 185//2 102//2
f 183//2 184//2 102//2
f 183//2 102//2 103//2
f 182//2 183//2 103//2
f 181//2 182//2 103//2
f 180//2 181//2 103//2
f 180//2 103//2 104//2
f 179//2 180//2 104//2
f 178//2 179//2 104//2
f 177//2 178//2 104//2
f 177//2 104//2 105//2
f 176//2 177//2 105//2
f 175//2 176//2 105//2
f 175//2 105//2 106//2
f 174//2 175//2 106//2
f 173//2 174//2 106//2
f 173//2 106//2 107//2
f 172//2 173//2 107//2
f 172//2 107//2 108//2
f 171//2 172//2 108//2
f 170//2 171//2 108//2
f 170//2 108//2 109//2
f 169//2 170//2 109//2
f 169//2 109//2 110//2
f 168//2 169//2 110//2
f 168//2 110//2 111//2
f 167//2 168//2 111//2
f 166//2 167//2 111//2
f 166//2 111//2 112//2
f 165//2 166//2 112//2
f 164//2 165//2 112//2
f 164//2 112//2 113//2
f 163//2 164//2 113//2
f 162//2 163//2 113//2
f 159//2 188//2 157//2
f 157//2 188//2 162//2
f 157//2 162//2 113//2
f 157//2 113//2 114//2
f 157//2 114//2 115//2
f 157//2 115//2 116//2
f 157//2 116//2 117//2
f 157//2 117//2 118//2
f 157//2 118//2 119//2
f 157//2 119//2 120//2
f 157//2 120//2 156//2
f 156//2 120//2 155//2
f 155//2 120//2 121//2
f 159//2 157//2 158//2
f 154//2 155//2 121//2
f 153//2 154//2 121//2
f 152//2 153//2 121//2
f 152//2 121//2 122//2
f 151//2 152//2 122//2
f 150//2 151//2 122//2
f 150//2 122//2 123//2
f 149//2 150//2 123//2
f 149//2 123//2 124//2
f 148//2 149//2 124//2
f 148//2 124//2 125//2
f 147//2 148//2 125//2
f 147//2 125//2 126//2
f 146//2 147//2 126//2
f 146//2 126//2 127//2
f 145//2 146//2 127//2
f 145//2 127//2 128//2
f 145//2 128//2 129//2
f 144//2 145//2 129//2
f 144//2 129//2 130//2
f 143//2 144//2 130//2
f 143//2 130//2 131//2
f 143//2 131//2 132//2
f 143//2 132//2 133//2
f 143//2 133//2 134//2
f 143//2 134//2 135//2
f 143//2 135//2 136//2
f 143//2 136//2 137//2
f 143//2 137//2 138//2
f 143//2 138//2 139//2
f 143//2 139//2 140//2
f 143//2 140//2 141//2
f 143//2 141//2 142//2
f 192//3 189//4 190//4
f 194//5 191//3 192//3
f 196//6 193//5 194//5
f 198//7 195//6 196//6
f 200//8 197//7 198//7
f 202//9 199//8 200//8
f 204//10 201//9 202//9
f 206//11 203//10 204//10
f 208//12 205//11 206//11
f 210//13 207//12 208//12
f 212//14 209//13 210//13
f 214//15 211//14 212//14
f 216//16 213//15 214//15
f 218//17 215//16 216//16
f 220//18 217//17 218//17
f 222//19 219//18 220//18
f 224//20 221//19 222//19
f 226//21 223//20 224//20
f 228//22 225//21 226//21
f 230//23 227//22 228//22
f 232//24 229//23 230//23
f 234//25 231//24 232//24
f 236//26 233//25 234//25
f 238//27 235//28 236//28
f 240//29 237//27 238//27
f 242//30 239//29 240//29
f 244//31 241//30 242//30
f 246//32 243//31 244//31
f 248//33 245//32 246//32
f 250//34 247//33 248//33
f 252//35 249//34 250//34
f 254//36 251//35 252//35
f 256//37 253//36 254//36
f 258//38 255//37 256//37
f 260//39 257//38 258//38
f 262//40 259//39 260//39
f 264//41 261//40 262//40
f 266//42 263//41 264//41
f 268//43 265//42 266//42
f 270//44 267//43 268//43
f 272//45 269//44 270//44
f 274//46 271//45 272//45
f 276//47 273//46 274//46
f 278//48 275//47 276//47
f 280//49 277//48 278//48
f 282//50 279//49 280//49
f 284//51 281//50 282//50
f 286//52 283//52 284//52
f 288//53 285//54 286//54
f 290//55 287//53 288//53
f 292//56 289//55 290//55
f 294//57 291//56 292//56
f 296//58 293//57 294//57
f 298//59 295//58 296//58
f 300//60 297//59 298//59
f 302//61 299//60 300//60
f 304//62 301//61 302//61
f 306//63 303//62 304//62
f 308//64 305//63 306//63
f 310//65 307//64 308//64
f 312//66 309//65 310//65
f 314//52 311//66 312//66
f 316//67 313//67 314//67
f 318//52 315//52 316//52
f 320//68 317//68 318//68
f 322//69 319//70 320//70
f 190//4 321//69 322//69
f 326//71 323//72 324//72
f 328//73 325//71 326//71
f 330//74 327//73 328//73
f 332//75 329//74 330//74
f 334//76 331//75 332//75
f 336//77 333//76 334//76
f 338//78 335//77 336//77
f 340//79 337//78 338//78
f 342//80 339//79 340//79
f 344//81 341//80 342//80
f 346//82 343//81 344//81
f 348//83 345//82 346//82
f 350//84 347//83 348//83
f 352//85 349//84 350//84
f 354//86 351//85 352//85
f 356//87 353//86 354//86
f 358//88 355//87 356//87
f 360//89 357//88 358//88
f 362//90 359//89 360//89
f 364//91 361//90 362//90
f 366//92 363//91 364//91
f 368//93 365//92 366//92
f 370//94 367//93 368//93
f 372//95 369//94 370//94
f 374//52 371//95 372//95
f 376//67 373//67 374//67
f 324//72 375//70 376//70
f 192//3 191//3 189//4
f 194//5 193//5 191//3
f 196//6 195//6 193//5
f 198//7 197//7 195//6
f 200//8 199//8 197//7
f 202//9 201//9 199//8
f 204//10 203//10 201//9
f 206//11 205//11 203//10
f 208//12 207//12 205//11
f 210//13 209//13 207//12
f 212//14 211//14 209//13
f 214//15 213//15 211//14
f 216//16 215//16 213//15
f 218//17 217//17 215//16
f 220//18 219//18 217//17
f 222//19 221//19 219//18
f 224//20 223//20 221//19
f 226//21 225//21 223//20
f 228//22 227//22 225//21
f 230//23 229//23 227//22
f 232//24 231//24 229//23
f 234//25 233//25 231//24
f 236//26 235//26 233//25
f 238//27 237//27 235//28
f 240//29 239//29 237//27
f 242//30 241//30 239//29
f 244//31 243//31 241//30
f 246//32 245//32 243//31
f 248//33 247//33 245//32
f 250//34 249//34 247//33
f 252//35 251//35 249//34
f 254//36 253//36 251//35
f 256//37 255//37 253//36
f 258//38 257//38 255//37
f 260//39 259//39 257//38
f 262//40 261//40 259//39
f 264//41 263//41 261//40
f 266//42 265//42 263//41
f 268//43 267//43 265//42
f 270//44 269//44 267//43
f 272//45 271//45 269//44
f 274//46 273//46 271//45
f 276//47 275//47 273//46
f 278//48 277//48 275//47
f 280//49 279//49 277//48
f 282//50 281//50 279//49
f 284//51 283//51 281//50
f 286//52 285//52 283//52
f 288//53 287//53 285//54
f 290//55 289//55 287//53
f 292//56 291//56 289//55
f 294//57 293//57 291//56
f 296//58 295//58 293//57
f 298//59 297//59 295//58
f 300//60 299//60 297//59
f 302//61 301//61 299//60
f 304//62 303//62 301//61
f 306//63 305//63 303//62
f 308//64 307//64 305//63
f 310//65 309//65 307//64
f 312//66 311//66 309//65
f 314//52 313//52 311//66
f 316//67 315//67 313//67
f 318//52 317//52 315//52
f 320//68 319//68 317//68
f 322//69 321//69 319//70
f 190//4 189//4 321//69
f 326//71 325//71 323//72
f 328//73 327//73 325//71
f 330//74 329//74 327//73
f 332//75 331//75 329//74
f 334//76 333//76 331//75
f 336//77 335//77 333//76
f 338//78 337//78 335//77
f 340//79 339//79 337//78
f 342//80 341//80 339//79
f 344//81 343//81 341//80
f 346//82 345//82 343//81
f 348//83 347//83 345//82
f 350//84 349//84 347//83
f 352//85 351//85 349//84
f 354//86 353//86 351//85
f 356//87 355//87 353//86
f 358//88 357//88 355//87
f 360//89 359//89 357//88
f 362//90 361//90 359//89
f 364//91 363//91 361//90
f 366//92 365//92 363//91
f 368//93 367//93 365//92
f 370//94 369//94 367//93
f 372//95 371//95 369//94
f 374//52 373//52 371//95
f 376//67 375//67 373//67
f 324//72 323//72 375//70
