# Blender 3.4.0
# www.blender.org
o Text.001
v 0.073500 0.891000 0.150000
v 0.073500 -0.000000 0.150000
v -0.073500 -0.000000 0.150000
v -0.073500 0.891000 0.150000
v -0.427500 0.891000 0.150000
v -0.427500 1.023000 0.150000
v 0.427500 1.023000 0.150000
v 0.427500 0.891000 0.150000
v 0.073500 0.891000 -0.150000
v 0.073500 0.000000 -0.150000
v -0.073500 0.000000 -0.150000
v -0.073500 0.891000 -0.150000
v -0.427500 0.891000 -0.150000
v -0.427500 1.023000 -0.150000
v 0.427500 1.023000 -0.150000
v 0.427500 0.891000 -0.150000
v 0.073500 0.891000 -0.150000
v 0.073500 0.891000 0.150000
v 0.073500 0.000000 -0.150000
v 0.073500 -0.000000 0.150000
v -0.073500 0.000000 -0.150000
v -0.073500 -0.000000 0.150000
v -0.073500 0.891000 -0.150000
v -0.073500 0.891000 0.150000
v -0.427500 0.891000 -0.150000
v -0.427500 0.891000 0.150000
v -0.427500 1.023000 -0.150000
v -0.427500 1.023000 0.150000
v 0.427500 1.023000 -0.150000
v 0.427500 1.023000 0.150000
v 0.427500 0.891000 -0.150000
v 0.427500 0.891000 0.150000
vn -0.0000 -0.0000 1.0000
vn -0.0000 -0.0000 -1.0000
vn 1.0000 -0.0000 -0.0000
vn -0.0000 -1.0000 -0.0000
vn -1.0000 -0.0000 -0.0000
vn -0.0000 1.0000 -0.0000
s 1
f 5//1 7//1 6//1
f 5//1 8//1 7//1
f 4//1 8//1 5//1
f 3//1 1//1 4//1
f 1//1 8//1 4//1
f 3//1 2//1 1//1
f 13//2 14//2 15//2
f 13//2 15//2 16//2
f 12//1 13//1 16//2
f 11//2 12//2 9//2
f 9//1 12//1 16//2
f 11//2 9//2 10//2
f 20//3 17//3 18//3
f 22//4 19//4 20//4
f 24//5 21//5 22//5
f 26//4 23//4 24//4
f 28//5 25//5 26//5
f 30//6 27//6 28//6
f 32//3 29//3 30//3
f 18//4 31//4 32//4
f 20//3 19//3 17//3
f 22//4 21//4 19//4
f 24//5 23//5 21//5
f 26//4 25//4 23//4
f 28//5 27//5 25//5
f 30//6 29//6 27//6
f 32//3 31//3 29//3
f 18//4 17//4 31//4
