# Blender 3.4.0
# www.blender.org
o Text.001
v 0.336000 -0.009000 0.150000
v 0.000000 0.828000 0.150000
v -0.339000 -0.009000 0.150000
v -0.367500 -0.009000 0.150000
v -0.781500 1.023000 0.150000
v -0.634500 1.023000 0.150000
v -0.352500 0.318000 0.150000
v -0.069000 1.023000 0.150000
v 0.070500 1.023000 0.150000
v 0.355500 0.318000 0.150000
v 0.634500 1.023000 0.150000
v 0.780000 1.023000 0.150000
v 0.364500 -0.009000 0.150000
v 0.336000 -0.009000 -0.150000
v 0.000000 0.828000 -0.150000
v -0.339000 -0.009000 -0.150000
v -0.367500 -0.009000 -0.150000
v -0.781500 1.023000 -0.150000
v -0.634500 1.023000 -0.150000
v -0.352500 0.318000 -0.150000
v -0.069000 1.023000 -0.150000
v 0.070500 1.023000 -0.150000
v 0.355500 0.318000 -0.150000
v 0.634500 1.023000 -0.150000
v 0.780000 1.023000 -0.150000
v 0.364500 -0.009000 -0.150000
v 0.336000 -0.009000 -0.150000
v 0.336000 -0.009000 0.150000
v 0.000000 0.828000 -0.150000
v 0.000000 0.828000 0.150000
v -0.339000 -0.009000 -0.150000
v -0.339000 -0.009000 0.150000
v -0.367500 -0.009000 -0.150000
v -0.367500 -0.009000 0.150000
v -0.781500 1.023000 -0.150000
v -0.781500 1.023000 0.150000
v -0.634500 1.023000 -0.150000
v -0.634500 1.023000 0.150000
v -0.352500 0.318000 -0.150000
v -0.352500 0.318000 0.150000
v -0.069000 1.023000 -0.150000
v -0.069000 1.023000 0.150000
v 0.070500 1.023000 -0.150000
v 0.070500 1.023000 0.150000
v 0.355500 0.318000 -0.150000
v 0.355500 0.318000 0.150000
v 0.634500 1.023000 -0.150000
v 0.634500 1.023000 0.150000
v 0.780000 1.023000 -0.150000
v 0.780000 1.023000 0.150000
v 0.364500 -0.009000 -0.150000
v 0.364500 -0.009000 0.150000
vn -0.0000 -0.0000 1.0000
vn -0.0000 -0.0000 -1.0000
vn -0.9280 -0.3725 -0.0000
vn 0.9269 -0.3754 -0.0000
vn -0.0000 -1.0000 -0.0000
vn -0.9281 -0.3723 -0.0000
vn -0.0000 1.0000 -0.0000
vn 0.9285 0.3714 -0.0000
vn -0.9278 0.3731 -0.0000
vn 0.9271 0.3748 -0.0000
vn -0.9298 0.3680 -0.0000
vn 0.9276 -0.3735 -0.0000
s 1
f 4//1 6//1 5//1
f 4//1 7//1 6//1
f 7//1 9//1 8//1
f 7//1 2//1 9//1
f 2//1 10//1 9//1
f 10//1 12//1 11//1
f 10//1 13//1 12//1
f 7//1 3//1 2//1
f 1//1 10//1 2//1
f 4//1 3//1 7//1
f 1//1 13//1 10//1
f 17//2 18//2 19//2
f 17//2 19//2 20//2
f 20//2 21//2 22//2
f 20//2 22//2 15//2
f 15//2 22//2 23//2
f 23//2 24//2 25//2
f 23//2 25//2 26//2
f 20//2 15//2 16//2
f 14//2 15//2 23//2
f 17//2 20//2 16//2
f 14//2 23//2 26//2
f 30//3 27//3 28//3
f 32//4 29//4 30//4
f 34//5 31//5 32//5
f 36//6 33//6 34//6
f 38//7 35//7 36//7
f 40//8 37//8 38//8
f 42//9 39//9 40//9
f 44//7 41//7 42//7
f 46//10 43//10 44//10
f 48//11 45//11 46//11
f 50//7 47//7 48//7
f 52//12 49//12 50//12
f 28//5 51//5 52//5
f 30//3 29//3 27//3
f 32//4 31//4 29//4
f 34//5 33//5 31//5
f 36//6 35//6 33//6
f 38//7 37//7 35//7
f 40//8 39//8 37//8
f 42//9 41//9 39//9
f 44//7 43//7 41//7
f 46//10 45//10 43//10
f 48//11 47//11 45//11
f 50//7 49//7 47//7
f 52//12 51//12 49//12
f 28//5 27//5 51//5
